<?xml version="1.0" encoding="utf-8" standalone="no"?>
<!DOCTYPE svg PUBLIC "-//W3C//DTD SVG 1.1//EN"
  "http://www.w3.org/Graphics/SVG/1.1/DTD/svg11.dtd">
<!-- Created with matplotlib (http://matplotlib.org/) -->
<svg height="432pt" version="1.1" viewBox="0 0 1080 432" width="1080pt" xmlns="http://www.w3.org/2000/svg" xmlns:xlink="http://www.w3.org/1999/xlink">
 <defs>
  <style type="text/css">
*{stroke-linecap:butt;stroke-linejoin:round;}
  </style>
 </defs>
 <g id="figure_1">
  <g id="patch_1">
   <path d="M 0 432 
L 1080 432 
L 1080 0 
L 0 0 
z
" style="fill:#ffffff;"/>
  </g>
  <g id="axes_1">
   <g id="patch_2">
    <path d="M 135 384.48 
L 972 384.48 
L 972 51.84 
L 135 51.84 
z
" style="fill:#ffffff;"/>
   </g>
   <g id="PolyCollection_1">
    <path clip-path="url(#p96ad4022f9)" d="M 192.826022 285.15 
L 192.826022 342.9 
L 195.806799 342.9 
L 198.787576 342.9 
L 201.768353 342.9 
L 204.749129 342.9 
L 207.729906 342.9 
L 210.710683 342.9 
L 213.691459 342.9 
L 216.672236 342.9 
L 219.653013 342.9 
L 222.633789 342.9 
L 225.614566 342.9 
L 228.595343 342.9 
L 231.576119 342.9 
L 234.556896 342.9 
L 237.537673 342.9 
L 240.518449 342.9 
L 243.499226 342.9 
L 246.480003 342.9 
L 249.460779 342.9 
L 252.441556 342.9 
L 255.422333 342.9 
L 258.403109 342.9 
L 261.383886 342.9 
L 264.364663 342.9 
L 267.345439 342.9 
L 270.326216 342.9 
L 273.306993 342.9 
L 276.287769 342.9 
L 279.268546 342.9 
L 282.249323 342.9 
L 285.230099 342.9 
L 288.210876 342.9 
L 291.191653 342.9 
L 294.172429 342.9 
L 297.153206 342.9 
L 300.133983 342.9 
L 303.114759 342.9 
L 306.095536 342.9 
L 309.076313 342.9 
L 312.057089 342.9 
L 315.037866 342.9 
L 318.018643 342.9 
L 320.999419 342.9 
L 323.980196 342.9 
L 326.960973 342.9 
L 329.941749 342.9 
L 332.922526 342.9 
L 335.903303 342.9 
L 338.88408 342.9 
L 341.864856 342.9 
L 344.845633 342.9 
L 347.82641 342.9 
L 350.807186 342.9 
L 353.787963 342.9 
L 356.76874 342.9 
L 359.749516 342.9 
L 362.730293 342.9 
L 365.71107 342.9 
L 368.691846 342.9 
L 371.672623 342.9 
L 374.6534 342.9 
L 377.634176 342.9 
L 380.614953 342.9 
L 383.59573 342.9 
L 386.576506 342.9 
L 389.557283 342.9 
L 392.53806 342.9 
L 395.518836 342.9 
L 398.499613 342.9 
L 401.48039 342.9 
L 404.461166 342.9 
L 407.441943 342.9 
L 410.42272 342.9 
L 413.403496 342.9 
L 416.384273 342.9 
L 419.36505 342.9 
L 422.345826 342.9 
L 425.326603 342.9 
L 428.30738 342.9 
L 431.288156 342.9 
L 434.268933 342.9 
L 437.24971 342.9 
L 440.230486 342.9 
L 443.211263 342.9 
L 446.19204 342.9 
L 449.172816 342.9 
L 452.153593 342.9 
L 455.13437 342.9 
L 458.115146 342.9 
L 461.095923 342.9 
L 464.0767 342.9 
L 467.057476 342.9 
L 470.038253 342.9 
L 473.01903 342.9 
L 475.999806 342.9 
L 478.980583 342.9 
L 481.96136 342.9 
L 484.942137 342.9 
L 487.922913 342.9 
L 490.90369 342.9 
L 493.884467 342.9 
L 496.865243 342.9 
L 499.84602 342.9 
L 502.826797 342.9 
L 505.807573 342.9 
L 508.78835 342.9 
L 511.769127 342.9 
L 514.749903 342.9 
L 517.73068 342.9 
L 520.711457 342.9 
L 523.692233 342.9 
L 526.67301 342.9 
L 529.653787 342.9 
L 532.634563 342.9 
L 535.61534 342.9 
L 538.596117 342.9 
L 541.576893 342.9 
L 544.55767 342.9 
L 547.538447 342.9 
L 550.519223 342.9 
L 553.5 342.9 
L 556.480777 342.9 
L 559.461553 342.9 
L 562.44233 342.9 
L 565.423107 342.9 
L 568.403883 342.9 
L 571.38466 342.9 
L 574.365437 342.9 
L 577.346213 342.9 
L 580.32699 342.9 
L 583.307767 342.9 
L 586.288543 342.9 
L 589.26932 342.9 
L 592.250097 342.9 
L 595.230873 342.9 
L 598.21165 342.9 
L 601.192427 342.9 
L 604.173203 342.9 
L 607.15398 342.9 
L 610.134757 342.9 
L 613.115533 342.9 
L 616.09631 342.9 
L 619.077087 342.9 
L 622.057863 342.9 
L 625.03864 342.9 
L 628.019417 342.9 
L 631.000194 342.9 
L 633.98097 342.9 
L 636.961747 342.9 
L 639.942524 342.9 
L 642.9233 342.9 
L 645.904077 342.9 
L 648.884854 342.9 
L 651.86563 342.9 
L 654.846407 342.9 
L 657.827184 342.9 
L 660.80796 342.9 
L 663.788737 342.9 
L 666.769514 342.9 
L 669.75029 342.9 
L 672.731067 342.9 
L 675.711844 342.9 
L 678.69262 342.9 
L 681.673397 342.9 
L 684.654174 342.9 
L 687.63495 342.9 
L 690.615727 342.9 
L 693.596504 342.9 
L 696.57728 342.9 
L 699.558057 342.9 
L 702.538834 342.9 
L 705.51961 342.9 
L 708.500387 342.9 
L 711.481164 342.9 
L 714.46194 342.9 
L 717.442717 342.9 
L 720.423494 342.9 
L 723.40427 342.9 
L 726.385047 342.9 
L 729.365824 342.9 
L 732.3466 342.9 
L 735.327377 342.9 
L 738.308154 342.9 
L 741.28893 342.9 
L 744.269707 342.9 
L 747.250484 342.9 
L 750.23126 342.9 
L 753.212037 342.9 
L 756.192814 342.9 
L 759.17359 342.9 
L 762.154367 342.9 
L 765.135144 342.9 
L 768.11592 342.9 
L 771.096697 342.9 
L 774.077474 342.9 
L 777.058251 342.9 
L 780.039027 342.9 
L 783.019804 342.9 
L 786.000581 342.9 
L 788.981357 342.9 
L 791.962134 342.9 
L 794.942911 342.9 
L 797.923687 342.9 
L 800.904464 342.9 
L 803.885241 342.9 
L 806.866017 342.9 
L 809.846794 342.9 
L 812.827571 342.9 
L 815.808347 342.9 
L 818.789124 342.9 
L 821.769901 342.9 
L 824.750677 342.9 
L 827.731454 342.9 
L 830.712231 342.9 
L 833.693007 342.9 
L 836.673784 342.9 
L 839.654561 342.9 
L 842.635337 342.9 
L 845.616114 342.9 
L 848.596891 342.9 
L 851.577667 342.9 
L 854.558444 342.9 
L 857.539221 342.9 
L 860.519997 342.9 
L 863.500774 342.9 
L 866.481551 342.9 
L 869.462327 342.9 
L 872.443104 342.9 
L 875.423881 342.9 
L 878.404657 342.9 
L 881.385434 342.9 
L 884.366211 342.9 
L 887.346987 342.9 
L 890.327764 342.9 
L 893.308541 342.9 
L 896.289317 342.9 
L 899.270094 342.9 
L 902.250871 342.9 
L 905.231647 342.9 
L 908.212424 342.9 
L 911.193201 342.9 
L 914.173978 342.9 
L 917.154754 342.9 
L 917.154754 332.961628 
L 917.154754 332.961628 
L 914.173978 339.139535 
L 911.193201 341.288372 
L 908.212424 342.094186 
L 905.231647 342.362791 
L 902.250871 342.631395 
L 899.270094 342.631395 
L 896.289317 342.9 
L 893.308541 342.9 
L 890.327764 342.9 
L 887.346987 342.9 
L 884.366211 342.9 
L 881.385434 342.9 
L 878.404657 342.9 
L 875.423881 342.9 
L 872.443104 342.9 
L 869.462327 342.9 
L 866.481551 342.9 
L 863.500774 342.9 
L 860.519997 342.9 
L 857.539221 342.9 
L 854.558444 342.9 
L 851.577667 342.9 
L 848.596891 342.9 
L 845.616114 342.9 
L 842.635337 342.9 
L 839.654561 342.9 
L 836.673784 342.9 
L 833.693007 342.9 
L 830.712231 342.9 
L 827.731454 342.631395 
L 824.750677 342.631395 
L 821.769901 342.362791 
L 818.789124 342.094186 
L 815.808347 341.556977 
L 812.827571 339.676744 
L 809.846794 334.036047 
L 806.866017 321.948837 
L 803.885241 300.72907 
L 800.904464 271.182558 
L 797.923687 237.069767 
L 794.942911 206.180233 
L 791.962134 186.303488 
L 788.981357 183.617442 
L 786.000581 198.659302 
L 783.019804 226.862791 
L 780.039027 260.706977 
L 777.058251 292.133721 
L 774.077474 316.039535 
L 771.096697 330.812791 
L 768.11592 338.065116 
L 765.135144 341.019767 
L 762.154367 341.825581 
L 759.17359 342.094186 
L 756.192814 342.362791 
L 753.212037 342.631395 
L 750.23126 342.9 
L 747.250484 342.9 
L 744.269707 342.9 
L 741.28893 342.9 
L 738.308154 342.9 
L 735.327377 342.9 
L 732.3466 342.9 
L 729.365824 342.9 
L 726.385047 342.9 
L 723.40427 342.9 
L 720.423494 342.9 
L 717.442717 342.9 
L 714.46194 342.9 
L 711.481164 342.9 
L 708.500387 342.9 
L 705.51961 342.9 
L 702.538834 342.9 
L 699.558057 342.9 
L 696.57728 342.9 
L 693.596504 342.9 
L 690.615727 342.9 
L 687.63495 342.9 
L 684.654174 342.9 
L 681.673397 342.9 
L 678.69262 342.9 
L 675.711844 342.9 
L 672.731067 342.9 
L 669.75029 342.9 
L 666.769514 342.9 
L 663.788737 342.9 
L 660.80796 342.9 
L 657.827184 342.9 
L 654.846407 342.9 
L 651.86563 342.9 
L 648.884854 342.9 
L 645.904077 342.9 
L 642.9233 342.9 
L 639.942524 342.9 
L 636.961747 342.9 
L 633.98097 342.9 
L 631.000194 342.9 
L 628.019417 342.9 
L 625.03864 342.9 
L 622.057863 342.9 
L 619.077087 342.9 
L 616.09631 342.9 
L 613.115533 342.9 
L 610.134757 342.9 
L 607.15398 342.9 
L 604.173203 342.9 
L 601.192427 342.9 
L 598.21165 342.9 
L 595.230873 342.9 
L 592.250097 342.9 
L 589.26932 342.9 
L 586.288543 342.9 
L 583.307767 342.9 
L 580.32699 342.9 
L 577.346213 342.9 
L 574.365437 342.9 
L 571.38466 342.9 
L 568.403883 342.9 
L 565.423107 342.9 
L 562.44233 342.9 
L 559.461553 342.9 
L 556.480777 342.9 
L 553.5 342.9 
L 550.519223 342.9 
L 547.538447 342.9 
L 544.55767 342.9 
L 541.576893 342.9 
L 538.596117 342.9 
L 535.61534 342.9 
L 532.634563 342.9 
L 529.653787 342.9 
L 526.67301 342.9 
L 523.692233 342.9 
L 520.711457 342.9 
L 517.73068 342.9 
L 514.749903 342.9 
L 511.769127 342.9 
L 508.78835 342.9 
L 505.807573 342.9 
L 502.826797 342.9 
L 499.84602 342.9 
L 496.865243 342.9 
L 493.884467 342.9 
L 490.90369 342.9 
L 487.922913 342.9 
L 484.942137 342.9 
L 481.96136 342.9 
L 478.980583 342.9 
L 475.999806 342.9 
L 473.01903 342.9 
L 470.038253 342.631395 
L 467.057476 342.362791 
L 464.0767 342.094186 
L 461.095923 341.556977 
L 458.115146 341.019767 
L 455.13437 338.87093 
L 452.153593 331.887209 
L 449.172816 316.039535 
L 446.19204 286.493023 
L 443.211263 241.904651 
L 440.230486 186.840698 
L 437.24971 131.50814 
L 434.268933 89.874419 
L 431.288156 73.489535 
L 428.30738 86.919767 
L 425.326603 126.404651 
L 422.345826 180.931395 
L 419.36505 236.532558 
L 416.384273 281.65814 
L 413.403496 310.398837 
L 410.42272 321.680233 
L 407.441943 318.188372 
L 404.461166 304.489535 
L 401.48039 285.418605 
L 398.499613 266.347674 
L 395.518836 252.111628 
L 392.53806 247.276744 
L 389.557283 252.917442 
L 386.576506 267.422093 
L 383.59573 287.030233 
L 380.614953 306.638372 
L 377.634176 322.486047 
L 374.6534 333.230233 
L 371.672623 338.87093 
L 368.691846 341.288372 
L 365.71107 341.825581 
L 362.730293 342.094186 
L 359.749516 342.362791 
L 356.76874 342.631395 
L 353.787963 342.9 
L 350.807186 342.9 
L 347.82641 342.9 
L 344.845633 342.9 
L 341.864856 342.9 
L 338.88408 342.9 
L 335.903303 342.9 
L 332.922526 342.9 
L 329.941749 342.9 
L 326.960973 342.9 
L 323.980196 342.9 
L 320.999419 342.631395 
L 318.018643 342.362791 
L 315.037866 341.825581 
L 312.057089 341.288372 
L 309.076313 340.751163 
L 306.095536 338.87093 
L 303.114759 332.693023 
L 300.133983 317.651163 
L 297.153206 288.910465 
L 294.172429 244.590698 
L 291.191653 188.183721 
L 288.210876 130.433721 
L 285.230099 85.30814 
L 282.249323 65.7 
L 279.268546 77.25 
L 276.287769 116.734884 
L 273.306993 173.14186 
L 270.326216 231.160465 
L 267.345439 279.509302 
L 264.364663 312.27907 
L 261.383886 330.275581 
L 258.403109 338.065116 
L 255.422333 340.751163 
L 252.441556 341.556977 
L 249.460779 341.825581 
L 246.480003 342.094186 
L 243.499226 342.094186 
L 240.518449 342.094186 
L 237.537673 341.825581 
L 234.556896 341.288372 
L 231.576119 338.87093 
L 228.595343 331.887209 
L 225.614566 315.77093 
L 222.633789 285.687209 
L 219.653013 240.830233 
L 216.672236 186.303488 
L 213.691459 132.313953 
L 210.710683 93.097674 
L 207.729906 79.398837 
L 204.749129 95.246512 
L 201.768353 135.805814 
L 198.787576 189.526744 
L 195.806799 242.97907 
L 192.826022 285.15 
z
" style="fill-opacity:0.125;"/>
   </g>
   <g id="PolyCollection_2">
    <path clip-path="url(#p96ad4022f9)" d="M 192.826022 342.9 
L 192.826022 342.9 
L 195.806799 342.9 
L 198.787576 342.9 
L 201.768353 342.9 
L 204.749129 342.9 
L 207.729906 342.9 
L 210.710683 342.9 
L 213.691459 342.9 
L 216.672236 342.9 
L 219.653013 342.9 
L 222.633789 342.9 
L 225.614566 342.9 
L 228.595343 342.9 
L 231.576119 342.9 
L 234.556896 342.9 
L 237.537673 342.9 
L 240.518449 342.9 
L 243.499226 342.9 
L 246.480003 342.9 
L 249.460779 342.9 
L 252.441556 342.9 
L 255.422333 342.9 
L 258.403109 342.9 
L 261.383886 342.9 
L 264.364663 342.9 
L 267.345439 342.9 
L 270.326216 342.9 
L 273.306993 342.9 
L 276.287769 342.9 
L 279.268546 342.9 
L 282.249323 342.9 
L 285.230099 342.9 
L 288.210876 342.9 
L 291.191653 342.9 
L 294.172429 342.9 
L 297.153206 342.9 
L 300.133983 342.9 
L 303.114759 342.9 
L 306.095536 342.9 
L 309.076313 342.9 
L 312.057089 342.9 
L 315.037866 342.9 
L 318.018643 342.9 
L 320.999419 342.9 
L 323.980196 342.9 
L 326.960973 342.9 
L 329.941749 342.9 
L 332.922526 342.9 
L 335.903303 342.9 
L 338.88408 342.9 
L 341.864856 342.9 
L 344.845633 342.9 
L 347.82641 342.9 
L 350.807186 342.9 
L 353.787963 342.9 
L 356.76874 342.9 
L 359.749516 342.9 
L 362.730293 342.9 
L 365.71107 342.9 
L 368.691846 342.9 
L 371.672623 342.9 
L 374.6534 342.9 
L 377.634176 342.9 
L 380.614953 342.9 
L 383.59573 342.9 
L 386.576506 342.9 
L 389.557283 342.9 
L 392.53806 342.9 
L 395.518836 342.9 
L 398.499613 342.9 
L 401.48039 342.9 
L 404.461166 342.9 
L 407.441943 342.9 
L 410.42272 342.9 
L 413.403496 342.9 
L 416.384273 342.9 
L 419.36505 342.9 
L 422.345826 342.9 
L 425.326603 342.9 
L 428.30738 342.9 
L 431.288156 342.9 
L 434.268933 342.9 
L 437.24971 342.9 
L 440.230486 342.9 
L 443.211263 342.9 
L 446.19204 342.9 
L 449.172816 342.9 
L 452.153593 342.9 
L 455.13437 342.9 
L 458.115146 342.9 
L 461.095923 342.9 
L 464.0767 342.9 
L 467.057476 342.9 
L 470.038253 342.9 
L 473.01903 342.9 
L 475.999806 342.9 
L 478.980583 342.9 
L 481.96136 342.9 
L 484.942137 342.9 
L 487.922913 342.9 
L 490.90369 342.9 
L 493.884467 342.9 
L 496.865243 342.9 
L 499.84602 342.9 
L 502.826797 342.9 
L 505.807573 342.9 
L 508.78835 342.9 
L 511.769127 342.9 
L 514.749903 342.9 
L 517.73068 342.9 
L 520.711457 342.9 
L 523.692233 342.9 
L 526.67301 342.9 
L 529.653787 342.9 
L 532.634563 342.9 
L 535.61534 342.9 
L 538.596117 342.9 
L 541.576893 342.9 
L 544.55767 342.9 
L 547.538447 342.9 
L 550.519223 342.9 
L 553.5 342.9 
L 556.480777 342.9 
L 559.461553 342.9 
L 562.44233 342.9 
L 565.423107 342.9 
L 568.403883 342.9 
L 571.38466 342.9 
L 574.365437 342.9 
L 577.346213 342.9 
L 580.32699 342.9 
L 583.307767 342.9 
L 586.288543 342.9 
L 589.26932 342.9 
L 592.250097 342.9 
L 595.230873 342.9 
L 598.21165 342.9 
L 601.192427 342.9 
L 604.173203 342.9 
L 607.15398 342.9 
L 610.134757 342.9 
L 613.115533 342.9 
L 616.09631 342.9 
L 619.077087 342.9 
L 622.057863 342.9 
L 625.03864 342.9 
L 628.019417 342.9 
L 631.000194 342.9 
L 633.98097 342.9 
L 636.961747 342.9 
L 639.942524 342.9 
L 642.9233 342.9 
L 645.904077 342.9 
L 648.884854 342.9 
L 651.86563 342.9 
L 654.846407 342.9 
L 657.827184 342.9 
L 660.80796 342.9 
L 663.788737 342.9 
L 666.769514 342.9 
L 669.75029 342.9 
L 672.731067 342.9 
L 675.711844 342.9 
L 678.69262 342.9 
L 681.673397 342.9 
L 684.654174 342.9 
L 687.63495 342.9 
L 690.615727 342.9 
L 693.596504 342.9 
L 696.57728 342.9 
L 699.558057 342.9 
L 702.538834 342.9 
L 705.51961 342.9 
L 708.500387 342.9 
L 711.481164 342.9 
L 714.46194 342.9 
L 717.442717 342.9 
L 720.423494 342.9 
L 723.40427 342.9 
L 726.385047 342.9 
L 729.365824 342.9 
L 732.3466 342.9 
L 735.327377 342.9 
L 738.308154 342.9 
L 741.28893 342.9 
L 744.269707 342.9 
L 747.250484 342.9 
L 750.23126 342.9 
L 753.212037 342.9 
L 756.192814 342.9 
L 759.17359 342.9 
L 762.154367 342.9 
L 765.135144 342.9 
L 768.11592 342.9 
L 771.096697 342.9 
L 774.077474 342.9 
L 777.058251 342.9 
L 780.039027 342.9 
L 783.019804 342.9 
L 786.000581 342.9 
L 788.981357 342.9 
L 791.962134 342.9 
L 794.942911 342.9 
L 797.923687 342.9 
L 800.904464 342.9 
L 803.885241 342.9 
L 806.866017 342.9 
L 809.846794 342.9 
L 812.827571 342.9 
L 815.808347 342.9 
L 818.789124 342.9 
L 821.769901 342.9 
L 824.750677 342.9 
L 827.731454 342.9 
L 830.712231 342.9 
L 833.693007 342.9 
L 836.673784 342.9 
L 839.654561 342.9 
L 842.635337 342.9 
L 845.616114 342.9 
L 848.596891 342.9 
L 851.577667 342.9 
L 854.558444 342.9 
L 857.539221 342.9 
L 860.519997 342.9 
L 863.500774 342.9 
L 866.481551 342.9 
L 869.462327 342.9 
L 872.443104 342.9 
L 875.423881 342.9 
L 878.404657 342.9 
L 881.385434 342.9 
L 884.366211 342.9 
L 887.346987 342.9 
L 890.327764 342.9 
L 893.308541 342.9 
L 896.289317 342.9 
L 899.270094 342.9 
L 902.250871 342.9 
L 905.231647 342.9 
L 908.212424 342.9 
L 911.193201 342.9 
L 914.173978 342.9 
L 917.154754 342.9 
L 917.154754 325.977907 
L 917.154754 325.977907 
L 914.173978 307.175581 
L 911.193201 278.166279 
L 908.212424 241.636047 
L 905.231647 205.105814 
L 902.250871 177.439535 
L 899.270094 166.963953 
L 896.289317 176.902326 
L 893.308541 204.3 
L 890.327764 240.830233 
L 887.346987 277.360465 
L 884.366211 306.638372 
L 881.385434 325.709302 
L 878.404657 335.916279 
L 875.423881 340.213953 
L 872.443104 341.556977 
L 869.462327 341.825581 
L 866.481551 342.362791 
L 863.500774 342.631395 
L 860.519997 342.9 
L 857.539221 342.9 
L 854.558444 342.9 
L 851.577667 342.9 
L 848.596891 342.9 
L 845.616114 342.9 
L 842.635337 342.9 
L 839.654561 342.9 
L 836.673784 342.9 
L 833.693007 342.9 
L 830.712231 342.9 
L 827.731454 342.9 
L 824.750677 342.9 
L 821.769901 342.9 
L 818.789124 342.9 
L 815.808347 342.9 
L 812.827571 342.9 
L 809.846794 342.9 
L 806.866017 342.9 
L 803.885241 342.9 
L 800.904464 342.9 
L 797.923687 342.9 
L 794.942911 342.9 
L 791.962134 342.9 
L 788.981357 342.631395 
L 786.000581 342.094186 
L 783.019804 341.825581 
L 780.039027 341.556977 
L 777.058251 340.751163 
L 774.077474 338.065116 
L 771.096697 330.812791 
L 768.11592 314.965116 
L 765.135144 287.567442 
L 762.154367 249.962791 
L 759.17359 208.060465 
L 756.192814 170.993023 
L 753.212037 149.504651 
L 750.23126 150.04186 
L 747.250484 172.067442 
L 744.269707 209.403488 
L 741.28893 251.305814 
L 738.308154 288.64186 
L 735.327377 315.502326 
L 732.3466 331.35 
L 729.365824 338.602326 
L 726.385047 341.019767 
L 723.40427 341.825581 
L 720.423494 342.094186 
L 717.442717 342.362791 
L 714.46194 342.631395 
L 711.481164 342.9 
L 708.500387 342.9 
L 705.51961 342.9 
L 702.538834 342.9 
L 699.558057 342.9 
L 696.57728 342.9 
L 693.596504 342.9 
L 690.615727 342.9 
L 687.63495 342.9 
L 684.654174 342.9 
L 681.673397 342.631395 
L 678.69262 342.094186 
L 675.711844 341.825581 
L 672.731067 341.288372 
L 669.75029 340.213953 
L 666.769514 336.184884 
L 663.788737 326.246512 
L 660.80796 306.638372 
L 657.827184 275.748837 
L 654.846407 235.726744 
L 651.86563 194.093023 
L 648.884854 161.860465 
L 645.904077 148.161628 
L 642.9233 157.562791 
L 639.942524 186.840698 
L 636.961747 226.862791 
L 633.98097 266.347674 
L 631.000194 295.625581 
L 628.019417 308.25 
L 625.03864 302.609302 
L 622.057863 280.315116 
L 619.077087 247.00814 
L 616.09631 211.552326 
L 613.115533 183.617442 
L 610.134757 171.798837 
L 607.15398 179.856977 
L 604.173203 205.374419 
L 601.192427 240.024419 
L 598.21165 274.137209 
L 595.230873 298.311628 
L 592.250097 306.638372 
L 589.26932 296.7 
L 586.288543 270.913953 
L 583.307767 235.995349 
L 580.32699 201.345349 
L 577.346213 177.17093 
L 574.365437 171.261628 
L 571.38466 185.497674 
L 568.403883 215.581395 
L 565.423107 251.843023 
L 562.44233 283.806977 
L 559.461553 303.146512 
L 556.480777 304.75814 
L 553.5 287.567442 
L 550.519223 255.066279 
L 547.538447 215.044186 
L 544.55767 178.245349 
L 541.576893 155.682558 
L 538.596117 154.60814 
L 535.61534 175.290698 
L 532.634563 211.552326 
L 529.653787 252.917442 
L 526.67301 289.716279 
L 523.692233 316.30814 
L 520.711457 331.618605 
L 517.73068 338.602326 
L 514.749903 341.019767 
L 511.769127 341.556977 
L 508.78835 342.094186 
L 505.807573 342.362791 
L 502.826797 342.631395 
L 499.84602 342.9 
L 496.865243 342.9 
L 493.884467 342.9 
L 490.90369 342.9 
L 487.922913 342.9 
L 484.942137 342.9 
L 481.96136 342.9 
L 478.980583 342.9 
L 475.999806 342.9 
L 473.01903 342.9 
L 470.038253 342.9 
L 467.057476 342.9 
L 464.0767 342.9 
L 461.095923 342.9 
L 458.115146 342.9 
L 455.13437 342.9 
L 452.153593 342.9 
L 449.172816 342.9 
L 446.19204 342.9 
L 443.211263 342.9 
L 440.230486 342.9 
L 437.24971 342.9 
L 434.268933 342.9 
L 431.288156 342.9 
L 428.30738 342.9 
L 425.326603 342.9 
L 422.345826 342.9 
L 419.36505 342.9 
L 416.384273 342.9 
L 413.403496 342.9 
L 410.42272 342.9 
L 407.441943 342.9 
L 404.461166 342.9 
L 401.48039 342.9 
L 398.499613 342.9 
L 395.518836 342.9 
L 392.53806 342.631395 
L 389.557283 342.094186 
L 386.576506 341.825581 
L 383.59573 341.288372 
L 380.614953 339.40814 
L 377.634176 334.036047 
L 374.6534 320.874419 
L 371.672623 295.894186 
L 368.691846 257.752326 
L 365.71107 210.477907 
L 362.730293 162.934884 
L 359.749516 127.747674 
L 356.76874 115.123256 
L 353.787963 129.090698 
L 350.807186 165.62093 
L 347.82641 213.969767 
L 344.845633 261.244186 
L 341.864856 298.580233 
L 338.88408 322.486047 
L 335.903303 334.84186 
L 332.922526 339.676744 
L 329.941749 341.288372 
L 326.960973 341.825581 
L 323.980196 342.362791 
L 320.999419 342.631395 
L 318.018643 342.9 
L 315.037866 342.9 
L 312.057089 342.9 
L 309.076313 342.9 
L 306.095536 342.9 
L 303.114759 342.9 
L 300.133983 342.9 
L 297.153206 342.9 
L 294.172429 342.9 
L 291.191653 342.9 
L 288.210876 342.9 
L 285.230099 342.9 
L 282.249323 342.9 
L 279.268546 342.9 
L 276.287769 342.9 
L 273.306993 342.9 
L 270.326216 342.9 
L 267.345439 342.9 
L 264.364663 342.9 
L 261.383886 342.9 
L 258.403109 342.9 
L 255.422333 342.9 
L 252.441556 342.9 
L 249.460779 342.9 
L 246.480003 342.9 
L 243.499226 342.9 
L 240.518449 342.9 
L 237.537673 342.9 
L 234.556896 342.9 
L 231.576119 342.9 
L 228.595343 342.9 
L 225.614566 342.9 
L 222.633789 342.9 
L 219.653013 342.9 
L 216.672236 342.9 
L 213.691459 342.9 
L 210.710683 342.9 
L 207.729906 342.9 
L 204.749129 342.9 
L 201.768353 342.9 
L 198.787576 342.9 
L 195.806799 342.9 
L 192.826022 342.9 
z
" style="fill:#008000;fill-opacity:0.125;"/>
   </g>
   <g id="PolyCollection_3">
    <path clip-path="url(#p96ad4022f9)" d="M 192.826022 342.9 
L 192.826022 342.9 
L 195.806799 342.9 
L 198.787576 342.9 
L 201.768353 342.9 
L 204.749129 342.9 
L 207.729906 342.9 
L 210.710683 342.9 
L 213.691459 342.9 
L 216.672236 342.9 
L 219.653013 342.9 
L 222.633789 342.9 
L 225.614566 342.9 
L 228.595343 342.9 
L 231.576119 342.9 
L 234.556896 342.9 
L 237.537673 342.9 
L 240.518449 342.9 
L 243.499226 342.9 
L 246.480003 342.9 
L 249.460779 342.9 
L 252.441556 342.9 
L 255.422333 342.9 
L 258.403109 342.9 
L 261.383886 342.9 
L 264.364663 342.9 
L 267.345439 342.9 
L 270.326216 342.9 
L 273.306993 342.9 
L 276.287769 342.9 
L 279.268546 342.9 
L 282.249323 342.9 
L 285.230099 342.9 
L 288.210876 342.9 
L 291.191653 342.9 
L 294.172429 342.9 
L 297.153206 342.9 
L 300.133983 342.9 
L 303.114759 342.9 
L 306.095536 342.9 
L 309.076313 342.9 
L 312.057089 342.9 
L 315.037866 342.9 
L 318.018643 342.9 
L 320.999419 342.9 
L 323.980196 342.9 
L 326.960973 342.9 
L 329.941749 342.9 
L 332.922526 342.9 
L 335.903303 342.9 
L 338.88408 342.9 
L 341.864856 342.9 
L 344.845633 342.9 
L 347.82641 342.9 
L 350.807186 342.9 
L 353.787963 342.9 
L 356.76874 342.9 
L 359.749516 342.9 
L 362.730293 342.9 
L 365.71107 342.9 
L 368.691846 342.9 
L 371.672623 342.9 
L 374.6534 342.9 
L 377.634176 342.9 
L 380.614953 342.9 
L 383.59573 342.9 
L 386.576506 342.9 
L 389.557283 342.9 
L 392.53806 342.9 
L 395.518836 342.9 
L 398.499613 342.9 
L 401.48039 342.9 
L 404.461166 342.9 
L 407.441943 342.9 
L 410.42272 342.9 
L 413.403496 342.9 
L 416.384273 342.9 
L 419.36505 342.9 
L 422.345826 342.9 
L 425.326603 342.9 
L 428.30738 342.9 
L 431.288156 342.9 
L 434.268933 342.9 
L 437.24971 342.9 
L 440.230486 342.9 
L 443.211263 342.9 
L 446.19204 342.9 
L 449.172816 342.9 
L 452.153593 342.9 
L 455.13437 342.9 
L 458.115146 342.9 
L 461.095923 342.9 
L 464.0767 342.9 
L 467.057476 342.9 
L 470.038253 342.9 
L 473.01903 342.9 
L 475.999806 342.9 
L 478.980583 342.9 
L 481.96136 342.9 
L 484.942137 342.9 
L 487.922913 342.9 
L 490.90369 342.9 
L 493.884467 342.9 
L 496.865243 342.9 
L 499.84602 342.9 
L 502.826797 342.9 
L 505.807573 342.9 
L 508.78835 342.9 
L 511.769127 342.9 
L 514.749903 342.9 
L 517.73068 342.9 
L 520.711457 342.9 
L 523.692233 342.9 
L 526.67301 342.9 
L 529.653787 342.9 
L 532.634563 342.9 
L 535.61534 342.9 
L 538.596117 342.9 
L 541.576893 342.9 
L 544.55767 342.9 
L 547.538447 342.9 
L 550.519223 342.9 
L 553.5 342.9 
L 556.480777 342.9 
L 559.461553 342.9 
L 562.44233 342.9 
L 565.423107 342.9 
L 568.403883 342.9 
L 571.38466 342.9 
L 574.365437 342.9 
L 577.346213 342.9 
L 580.32699 342.9 
L 583.307767 342.9 
L 586.288543 342.9 
L 589.26932 342.9 
L 592.250097 342.9 
L 595.230873 342.9 
L 598.21165 342.9 
L 601.192427 342.9 
L 604.173203 342.9 
L 607.15398 342.9 
L 610.134757 342.9 
L 613.115533 342.9 
L 616.09631 342.9 
L 619.077087 342.9 
L 622.057863 342.9 
L 625.03864 342.9 
L 628.019417 342.9 
L 631.000194 342.9 
L 633.98097 342.9 
L 636.961747 342.9 
L 639.942524 342.9 
L 642.9233 342.9 
L 645.904077 342.9 
L 648.884854 342.9 
L 651.86563 342.9 
L 654.846407 342.9 
L 657.827184 342.9 
L 660.80796 342.9 
L 663.788737 342.9 
L 666.769514 342.9 
L 669.75029 342.9 
L 672.731067 342.9 
L 675.711844 342.9 
L 678.69262 342.9 
L 681.673397 342.9 
L 684.654174 342.9 
L 687.63495 342.9 
L 690.615727 342.9 
L 693.596504 342.9 
L 696.57728 342.9 
L 699.558057 342.9 
L 702.538834 342.9 
L 705.51961 342.9 
L 708.500387 342.9 
L 711.481164 342.9 
L 714.46194 342.9 
L 717.442717 342.9 
L 720.423494 342.9 
L 723.40427 342.9 
L 726.385047 342.9 
L 729.365824 342.9 
L 732.3466 342.9 
L 735.327377 342.9 
L 738.308154 342.9 
L 741.28893 342.9 
L 744.269707 342.9 
L 747.250484 342.9 
L 750.23126 342.9 
L 753.212037 342.9 
L 756.192814 342.9 
L 759.17359 342.9 
L 762.154367 342.9 
L 765.135144 342.9 
L 768.11592 342.9 
L 771.096697 342.9 
L 774.077474 342.9 
L 777.058251 342.9 
L 780.039027 342.9 
L 783.019804 342.9 
L 786.000581 342.9 
L 788.981357 342.9 
L 791.962134 342.9 
L 794.942911 342.9 
L 797.923687 342.9 
L 800.904464 342.9 
L 803.885241 342.9 
L 806.866017 342.9 
L 809.846794 342.9 
L 812.827571 342.9 
L 815.808347 342.9 
L 818.789124 342.9 
L 821.769901 342.9 
L 824.750677 342.9 
L 827.731454 342.9 
L 830.712231 342.9 
L 833.693007 342.9 
L 836.673784 342.9 
L 839.654561 342.9 
L 842.635337 342.9 
L 845.616114 342.9 
L 848.596891 342.9 
L 851.577667 342.9 
L 854.558444 342.9 
L 857.539221 342.9 
L 860.519997 342.9 
L 863.500774 342.9 
L 866.481551 342.9 
L 869.462327 342.9 
L 872.443104 342.9 
L 875.423881 342.9 
L 878.404657 342.9 
L 881.385434 342.9 
L 884.366211 342.9 
L 887.346987 342.9 
L 890.327764 342.9 
L 893.308541 342.9 
L 896.289317 342.9 
L 899.270094 342.9 
L 902.250871 342.9 
L 905.231647 342.9 
L 908.212424 342.9 
L 911.193201 342.9 
L 914.173978 342.9 
L 917.154754 342.9 
L 917.154754 342.9 
L 917.154754 342.9 
L 914.173978 342.9 
L 911.193201 342.9 
L 908.212424 342.9 
L 905.231647 342.9 
L 902.250871 342.9 
L 899.270094 342.9 
L 896.289317 342.9 
L 893.308541 342.9 
L 890.327764 342.9 
L 887.346987 342.9 
L 884.366211 342.9 
L 881.385434 342.9 
L 878.404657 342.9 
L 875.423881 342.9 
L 872.443104 342.9 
L 869.462327 342.9 
L 866.481551 342.9 
L 863.500774 342.631395 
L 860.519997 342.362791 
L 857.539221 341.825581 
L 854.558444 341.556977 
L 851.577667 339.945349 
L 848.596891 335.37907 
L 845.616114 324.903488 
L 842.635337 305.563953 
L 839.654561 276.554651 
L 836.673784 241.367442 
L 833.693007 206.717442 
L 830.712231 181.737209 
L 827.731454 173.67907 
L 824.750677 184.960465 
L 821.769901 211.82093 
L 818.789124 247.00814 
L 815.808347 281.65814 
L 812.827571 309.055814 
L 809.846794 326.783721 
L 806.866017 336.184884 
L 803.885241 340.213953 
L 800.904464 341.288372 
L 797.923687 341.825581 
L 794.942911 342.362791 
L 791.962134 342.631395 
L 788.981357 342.9 
L 786.000581 342.9 
L 783.019804 342.9 
L 780.039027 342.9 
L 777.058251 342.9 
L 774.077474 342.9 
L 771.096697 342.9 
L 768.11592 342.9 
L 765.135144 342.9 
L 762.154367 342.9 
L 759.17359 342.9 
L 756.192814 342.9 
L 753.212037 342.362791 
L 750.23126 342.094186 
L 747.250484 341.825581 
L 744.269707 341.288372 
L 741.28893 339.676744 
L 738.308154 335.110465 
L 735.327377 323.82907 
L 732.3466 302.609302 
L 729.365824 270.376744 
L 726.385047 229.817442 
L 723.40427 189.25814 
L 720.423494 158.905814 
L 717.442717 147.624419 
L 714.46194 158.905814 
L 711.481164 188.989535 
L 708.500387 229.280233 
L 705.51961 268.765116 
L 702.538834 298.311628 
L 699.558057 312.010465 
L 696.57728 308.25 
L 693.596504 288.373256 
L 690.615727 257.215116 
L 687.63495 222.296512 
L 684.654174 193.287209 
L 681.673397 178.513953 
L 678.69262 182.543023 
L 675.711844 204.3 
L 672.731067 237.069767 
L 669.75029 271.988372 
L 666.769514 301.803488 
L 663.788737 322.486047 
L 660.80796 334.304651 
L 657.827184 339.676744 
L 654.846407 341.288372 
L 651.86563 341.825581 
L 648.884854 342.094186 
L 645.904077 342.362791 
L 642.9233 342.631395 
L 639.942524 342.9 
L 636.961747 342.9 
L 633.98097 342.9 
L 631.000194 342.9 
L 628.019417 342.9 
L 625.03864 342.9 
L 622.057863 342.9 
L 619.077087 342.9 
L 616.09631 342.9 
L 613.115533 342.9 
L 610.134757 342.9 
L 607.15398 342.9 
L 604.173203 342.9 
L 601.192427 342.9 
L 598.21165 342.9 
L 595.230873 342.9 
L 592.250097 342.9 
L 589.26932 342.9 
L 586.288543 342.9 
L 583.307767 342.9 
L 580.32699 342.9 
L 577.346213 342.9 
L 574.365437 342.9 
L 571.38466 342.9 
L 568.403883 342.9 
L 565.423107 342.9 
L 562.44233 342.9 
L 559.461553 342.9 
L 556.480777 342.9 
L 553.5 342.9 
L 550.519223 342.9 
L 547.538447 342.9 
L 544.55767 342.9 
L 541.576893 342.631395 
L 538.596117 342.362791 
L 535.61534 342.094186 
L 532.634563 341.556977 
L 529.653787 340.213953 
L 526.67301 336.184884 
L 523.692233 326.783721 
L 520.711457 308.787209 
L 517.73068 281.389535 
L 514.749903 247.00814 
L 511.769127 212.35814 
L 508.78835 185.497674 
L 505.807573 175.022093 
L 502.826797 183.886047 
L 499.84602 209.672093 
L 496.865243 244.590698 
L 493.884467 278.703488 
L 490.90369 304.22093 
L 487.922913 315.233721 
L 484.942137 310.667442 
L 481.96136 291.596512 
L 478.980583 262.855814 
L 475.999806 230.89186 
L 473.01903 204.031395 
L 470.038253 190.063953 
L 467.057476 193.018605 
L 464.0767 212.089535 
L 461.095923 241.904651 
L 458.115146 274.405814 
L 455.13437 302.877907 
L 452.153593 322.754651 
L 449.172816 334.304651 
L 446.19204 339.40814 
L 443.211263 341.288372 
L 440.230486 341.825581 
L 437.24971 342.094186 
L 434.268933 342.362791 
L 431.288156 342.631395 
L 428.30738 342.9 
L 425.326603 342.9 
L 422.345826 342.9 
L 419.36505 342.9 
L 416.384273 342.9 
L 413.403496 342.9 
L 410.42272 342.9 
L 407.441943 342.9 
L 404.461166 342.9 
L 401.48039 342.9 
L 398.499613 342.9 
L 395.518836 342.9 
L 392.53806 342.9 
L 389.557283 342.9 
L 386.576506 342.9 
L 383.59573 342.9 
L 380.614953 342.9 
L 377.634176 342.9 
L 374.6534 342.9 
L 371.672623 342.9 
L 368.691846 342.9 
L 365.71107 342.9 
L 362.730293 342.9 
L 359.749516 342.631395 
L 356.76874 342.362791 
L 353.787963 342.094186 
L 350.807186 341.825581 
L 347.82641 341.556977 
L 344.845633 339.945349 
L 341.864856 335.37907 
L 338.88408 325.440698 
L 335.903303 308.787209 
L 332.922526 285.15 
L 329.941749 258.826744 
L 326.960973 234.652326 
L 323.980196 219.610465 
L 320.999419 217.730233 
L 318.018643 229.817442 
L 315.037866 252.111628 
L 312.057089 278.703488 
L 309.076313 303.146512 
L 306.095536 321.948837 
L 303.114759 333.498837 
L 300.133983 339.139535 
L 297.153206 341.288372 
L 294.172429 342.094186 
L 291.191653 342.094186 
L 288.210876 342.362791 
L 285.230099 342.362791 
L 282.249323 342.362791 
L 279.268546 342.362791 
L 276.287769 342.094186 
L 273.306993 341.825581 
L 270.326216 340.213953 
L 267.345439 336.184884 
L 264.364663 327.32093 
L 261.383886 312.010465 
L 258.403109 290.790698 
L 255.422333 266.884884 
L 252.441556 245.665116 
L 249.460779 232.503488 
L 246.480003 231.42907 
L 243.499226 242.710465 
L 240.518449 263.124419 
L 237.537673 287.030233 
L 234.556896 309.055814 
L 231.576119 325.172093 
L 228.595343 335.110465 
L 225.614566 339.676744 
L 222.633789 341.556977 
L 219.653013 342.094186 
L 216.672236 342.094186 
L 213.691459 342.362791 
L 210.710683 342.631395 
L 207.729906 342.9 
L 204.749129 342.9 
L 201.768353 342.9 
L 198.787576 342.9 
L 195.806799 342.9 
L 192.826022 342.9 
z
" style="fill:#ff0000;fill-opacity:0.125;"/>
   </g>
   <g id="PolyCollection_4">
    <path clip-path="url(#p96ad4022f9)" d="M 192.826022 342.9 
L 192.826022 342.9 
L 195.806799 342.9 
L 198.787576 342.9 
L 201.768353 342.9 
L 204.749129 342.9 
L 207.729906 342.9 
L 210.710683 342.9 
L 213.691459 342.9 
L 216.672236 342.9 
L 219.653013 342.9 
L 222.633789 342.9 
L 225.614566 342.9 
L 228.595343 342.9 
L 231.576119 342.9 
L 234.556896 342.9 
L 237.537673 342.9 
L 240.518449 342.9 
L 243.499226 342.9 
L 246.480003 342.9 
L 249.460779 342.9 
L 252.441556 342.9 
L 255.422333 342.9 
L 258.403109 342.9 
L 261.383886 342.9 
L 264.364663 342.9 
L 267.345439 342.9 
L 270.326216 342.9 
L 273.306993 342.9 
L 276.287769 342.9 
L 279.268546 342.9 
L 282.249323 342.9 
L 285.230099 342.9 
L 288.210876 342.9 
L 291.191653 342.9 
L 294.172429 342.9 
L 297.153206 342.9 
L 300.133983 342.9 
L 303.114759 342.9 
L 306.095536 342.9 
L 309.076313 342.9 
L 312.057089 342.9 
L 315.037866 342.9 
L 318.018643 342.9 
L 320.999419 342.9 
L 323.980196 342.9 
L 326.960973 342.9 
L 329.941749 342.9 
L 332.922526 342.9 
L 335.903303 342.9 
L 338.88408 342.9 
L 341.864856 342.9 
L 344.845633 342.9 
L 347.82641 342.9 
L 350.807186 342.9 
L 353.787963 342.9 
L 356.76874 342.9 
L 359.749516 342.9 
L 362.730293 342.9 
L 365.71107 342.9 
L 368.691846 342.9 
L 371.672623 342.9 
L 374.6534 342.9 
L 377.634176 342.9 
L 380.614953 342.9 
L 383.59573 342.9 
L 386.576506 342.9 
L 389.557283 342.9 
L 392.53806 342.9 
L 395.518836 342.9 
L 398.499613 342.9 
L 401.48039 342.9 
L 404.461166 342.9 
L 407.441943 342.9 
L 410.42272 342.9 
L 413.403496 342.9 
L 416.384273 342.9 
L 419.36505 342.9 
L 422.345826 342.9 
L 425.326603 342.9 
L 428.30738 342.9 
L 431.288156 342.9 
L 434.268933 342.9 
L 437.24971 342.9 
L 440.230486 342.9 
L 443.211263 342.9 
L 446.19204 342.9 
L 449.172816 342.9 
L 452.153593 342.9 
L 455.13437 342.9 
L 458.115146 342.9 
L 461.095923 342.9 
L 464.0767 342.9 
L 467.057476 342.9 
L 470.038253 342.9 
L 473.01903 342.9 
L 475.999806 342.9 
L 478.980583 342.9 
L 481.96136 342.9 
L 484.942137 342.9 
L 487.922913 342.9 
L 490.90369 342.9 
L 493.884467 342.9 
L 496.865243 342.9 
L 499.84602 342.9 
L 502.826797 342.9 
L 505.807573 342.9 
L 508.78835 342.9 
L 511.769127 342.9 
L 514.749903 342.9 
L 517.73068 342.9 
L 520.711457 342.9 
L 523.692233 342.9 
L 526.67301 342.9 
L 529.653787 342.9 
L 532.634563 342.9 
L 535.61534 342.9 
L 538.596117 342.9 
L 541.576893 342.9 
L 544.55767 342.9 
L 547.538447 342.9 
L 550.519223 342.9 
L 553.5 342.9 
L 556.480777 342.9 
L 559.461553 342.9 
L 562.44233 342.9 
L 565.423107 342.9 
L 568.403883 342.9 
L 571.38466 342.9 
L 574.365437 342.9 
L 577.346213 342.9 
L 580.32699 342.9 
L 583.307767 342.9 
L 586.288543 342.9 
L 589.26932 342.9 
L 592.250097 342.9 
L 595.230873 342.9 
L 598.21165 342.9 
L 601.192427 342.9 
L 604.173203 342.9 
L 607.15398 342.9 
L 610.134757 342.9 
L 613.115533 342.9 
L 616.09631 342.9 
L 619.077087 342.9 
L 622.057863 342.9 
L 625.03864 342.9 
L 628.019417 342.9 
L 631.000194 342.9 
L 633.98097 342.9 
L 636.961747 342.9 
L 639.942524 342.9 
L 642.9233 342.9 
L 645.904077 342.9 
L 648.884854 342.9 
L 651.86563 342.9 
L 654.846407 342.9 
L 657.827184 342.9 
L 660.80796 342.9 
L 663.788737 342.9 
L 666.769514 342.9 
L 669.75029 342.9 
L 672.731067 342.9 
L 675.711844 342.9 
L 678.69262 342.9 
L 681.673397 342.9 
L 684.654174 342.9 
L 687.63495 342.9 
L 690.615727 342.9 
L 693.596504 342.9 
L 696.57728 342.9 
L 699.558057 342.9 
L 702.538834 342.9 
L 705.51961 342.9 
L 708.500387 342.9 
L 711.481164 342.9 
L 714.46194 342.9 
L 717.442717 342.9 
L 720.423494 342.9 
L 723.40427 342.9 
L 726.385047 342.9 
L 729.365824 342.9 
L 732.3466 342.9 
L 735.327377 342.9 
L 738.308154 342.9 
L 741.28893 342.9 
L 744.269707 342.9 
L 747.250484 342.9 
L 750.23126 342.9 
L 753.212037 342.9 
L 756.192814 342.9 
L 759.17359 342.9 
L 762.154367 342.9 
L 765.135144 342.9 
L 768.11592 342.9 
L 771.096697 342.9 
L 774.077474 342.9 
L 777.058251 342.9 
L 780.039027 342.9 
L 783.019804 342.9 
L 786.000581 342.9 
L 788.981357 342.9 
L 791.962134 342.9 
L 794.942911 342.9 
L 797.923687 342.9 
L 800.904464 342.9 
L 803.885241 342.9 
L 806.866017 342.9 
L 809.846794 342.9 
L 812.827571 342.9 
L 815.808347 342.9 
L 818.789124 342.9 
L 821.769901 342.9 
L 824.750677 342.9 
L 827.731454 342.9 
L 830.712231 342.9 
L 833.693007 342.9 
L 836.673784 342.9 
L 839.654561 342.9 
L 842.635337 342.9 
L 845.616114 342.9 
L 848.596891 342.9 
L 851.577667 342.9 
L 854.558444 342.9 
L 857.539221 342.9 
L 860.519997 342.9 
L 863.500774 342.9 
L 866.481551 342.9 
L 869.462327 342.9 
L 872.443104 342.9 
L 875.423881 342.9 
L 878.404657 342.9 
L 881.385434 342.9 
L 884.366211 342.9 
L 887.346987 342.9 
L 890.327764 342.9 
L 893.308541 342.9 
L 896.289317 342.9 
L 899.270094 342.9 
L 902.250871 342.9 
L 905.231647 342.9 
L 908.212424 342.9 
L 911.193201 342.9 
L 914.173978 342.9 
L 917.154754 342.9 
L 917.154754 342.9 
L 917.154754 342.9 
L 914.173978 342.9 
L 911.193201 342.9 
L 908.212424 342.9 
L 905.231647 342.9 
L 902.250871 342.631395 
L 899.270094 342.094186 
L 896.289317 341.825581 
L 893.308541 341.288372 
L 890.327764 340.482558 
L 887.346987 336.722093 
L 884.366211 327.32093 
L 881.385434 308.25 
L 878.404657 277.09186 
L 875.423881 235.45814 
L 872.443104 190.601163 
L 869.462327 152.996512 
L 866.481551 132.851163 
L 863.500774 136.343023 
L 860.519997 162.397674 
L 857.539221 203.494186 
L 854.558444 248.619767 
L 851.577667 287.836047 
L 848.596891 315.502326 
L 845.616114 331.35 
L 842.635337 338.602326 
L 839.654561 341.019767 
L 836.673784 341.825581 
L 833.693007 342.094186 
L 830.712231 342.362791 
L 827.731454 342.631395 
L 824.750677 342.9 
L 821.769901 342.9 
L 818.789124 342.9 
L 815.808347 342.9 
L 812.827571 342.9 
L 809.846794 342.9 
L 806.866017 342.9 
L 803.885241 342.9 
L 800.904464 342.9 
L 797.923687 342.9 
L 794.942911 342.9 
L 791.962134 342.9 
L 788.981357 342.9 
L 786.000581 342.9 
L 783.019804 342.9 
L 780.039027 342.9 
L 777.058251 342.9 
L 774.077474 342.9 
L 771.096697 342.9 
L 768.11592 342.9 
L 765.135144 342.9 
L 762.154367 342.9 
L 759.17359 342.9 
L 756.192814 342.9 
L 753.212037 342.9 
L 750.23126 342.9 
L 747.250484 342.9 
L 744.269707 342.9 
L 741.28893 342.9 
L 738.308154 342.9 
L 735.327377 342.9 
L 732.3466 342.9 
L 729.365824 342.9 
L 726.385047 342.9 
L 723.40427 342.9 
L 720.423494 342.9 
L 717.442717 342.9 
L 714.46194 342.9 
L 711.481164 342.9 
L 708.500387 342.9 
L 705.51961 342.9 
L 702.538834 342.9 
L 699.558057 342.9 
L 696.57728 342.9 
L 693.596504 342.9 
L 690.615727 342.9 
L 687.63495 342.9 
L 684.654174 342.9 
L 681.673397 342.9 
L 678.69262 342.9 
L 675.711844 342.9 
L 672.731067 342.9 
L 669.75029 342.9 
L 666.769514 342.9 
L 663.788737 342.9 
L 660.80796 342.9 
L 657.827184 342.9 
L 654.846407 342.9 
L 651.86563 342.9 
L 648.884854 342.9 
L 645.904077 342.9 
L 642.9233 342.9 
L 639.942524 342.9 
L 636.961747 342.9 
L 633.98097 342.9 
L 631.000194 342.9 
L 628.019417 342.9 
L 625.03864 342.9 
L 622.057863 342.9 
L 619.077087 342.9 
L 616.09631 342.9 
L 613.115533 342.9 
L 610.134757 342.9 
L 607.15398 342.9 
L 604.173203 342.9 
L 601.192427 342.9 
L 598.21165 342.9 
L 595.230873 342.9 
L 592.250097 342.9 
L 589.26932 342.9 
L 586.288543 342.9 
L 583.307767 342.9 
L 580.32699 342.9 
L 577.346213 342.9 
L 574.365437 342.9 
L 571.38466 342.9 
L 568.403883 342.9 
L 565.423107 342.9 
L 562.44233 342.9 
L 559.461553 342.9 
L 556.480777 342.9 
L 553.5 342.9 
L 550.519223 342.9 
L 547.538447 342.9 
L 544.55767 342.9 
L 541.576893 342.9 
L 538.596117 342.9 
L 535.61534 342.9 
L 532.634563 342.9 
L 529.653787 342.9 
L 526.67301 342.9 
L 523.692233 342.9 
L 520.711457 342.9 
L 517.73068 342.9 
L 514.749903 342.9 
L 511.769127 342.9 
L 508.78835 342.9 
L 505.807573 342.9 
L 502.826797 342.9 
L 499.84602 342.9 
L 496.865243 342.9 
L 493.884467 342.9 
L 490.90369 342.9 
L 487.922913 342.9 
L 484.942137 342.9 
L 481.96136 342.9 
L 478.980583 342.9 
L 475.999806 342.9 
L 473.01903 342.9 
L 470.038253 342.9 
L 467.057476 342.9 
L 464.0767 342.9 
L 461.095923 342.9 
L 458.115146 342.9 
L 455.13437 342.9 
L 452.153593 342.9 
L 449.172816 342.9 
L 446.19204 342.9 
L 443.211263 342.9 
L 440.230486 342.9 
L 437.24971 342.9 
L 434.268933 342.9 
L 431.288156 342.9 
L 428.30738 342.9 
L 425.326603 342.9 
L 422.345826 342.9 
L 419.36505 342.9 
L 416.384273 342.9 
L 413.403496 342.9 
L 410.42272 342.9 
L 407.441943 342.9 
L 404.461166 342.9 
L 401.48039 342.9 
L 398.499613 342.9 
L 395.518836 342.9 
L 392.53806 342.9 
L 389.557283 342.9 
L 386.576506 342.9 
L 383.59573 342.9 
L 380.614953 342.9 
L 377.634176 342.9 
L 374.6534 342.9 
L 371.672623 342.9 
L 368.691846 342.9 
L 365.71107 342.9 
L 362.730293 342.9 
L 359.749516 342.9 
L 356.76874 342.9 
L 353.787963 342.9 
L 350.807186 342.9 
L 347.82641 342.9 
L 344.845633 342.9 
L 341.864856 342.9 
L 338.88408 342.9 
L 335.903303 342.9 
L 332.922526 342.9 
L 329.941749 342.9 
L 326.960973 342.9 
L 323.980196 342.9 
L 320.999419 342.9 
L 318.018643 342.9 
L 315.037866 342.9 
L 312.057089 342.9 
L 309.076313 342.9 
L 306.095536 342.9 
L 303.114759 342.9 
L 300.133983 342.9 
L 297.153206 342.9 
L 294.172429 342.9 
L 291.191653 342.9 
L 288.210876 342.9 
L 285.230099 342.9 
L 282.249323 342.9 
L 279.268546 342.9 
L 276.287769 342.9 
L 273.306993 342.9 
L 270.326216 342.9 
L 267.345439 342.9 
L 264.364663 342.9 
L 261.383886 342.9 
L 258.403109 342.9 
L 255.422333 342.9 
L 252.441556 342.9 
L 249.460779 342.9 
L 246.480003 342.9 
L 243.499226 342.9 
L 240.518449 342.9 
L 237.537673 342.9 
L 234.556896 342.9 
L 231.576119 342.9 
L 228.595343 342.9 
L 225.614566 342.9 
L 222.633789 342.9 
L 219.653013 342.9 
L 216.672236 342.9 
L 213.691459 342.9 
L 210.710683 342.9 
L 207.729906 342.9 
L 204.749129 342.9 
L 201.768353 342.9 
L 198.787576 342.9 
L 195.806799 342.9 
L 192.826022 342.9 
z
" style="fill:#0000ff;fill-opacity:0.125;"/>
   </g>
   <g id="patch_3">
    <path clip-path="url(#p96ad4022f9)" d="M 625.03864 384.48 
L 660.80796 384.48 
L 660.80796 51.84 
L 625.03864 51.84 
z
" style="fill:#ffff00;opacity:0.3;"/>
   </g>
   <g id="matplotlib.axis_1">
    <g id="xtick_1">
     <g id="line2d_1">
      <defs>
       <path d="M 0 0 
L 0 3.5 
" id="m89fe0bf38f" style="stroke:#000000;stroke-width:0.8;"/>
      </defs>
      <g>
       <use style="stroke:#000000;stroke-width:0.8;" x="207.729906" xlink:href="#m89fe0bf38f" y="384.48"/>
      </g>
     </g>
     <g id="text_1">
      <!-- 209 -->
      <defs>
       <path d="M 19.1875 8.296875 
L 53.609375 8.296875 
L 53.609375 0 
L 7.328125 0 
L 7.328125 8.296875 
Q 12.9375 14.109375 22.625 23.890625 
Q 32.328125 33.6875 34.8125 36.53125 
Q 39.546875 41.84375 41.421875 45.53125 
Q 43.3125 49.21875 43.3125 52.78125 
Q 43.3125 58.59375 39.234375 62.25 
Q 35.15625 65.921875 28.609375 65.921875 
Q 23.96875 65.921875 18.8125 64.3125 
Q 13.671875 62.703125 7.8125 59.421875 
L 7.8125 69.390625 
Q 13.765625 71.78125 18.9375 73 
Q 24.125 74.21875 28.421875 74.21875 
Q 39.75 74.21875 46.484375 68.546875 
Q 53.21875 62.890625 53.21875 53.421875 
Q 53.21875 48.921875 51.53125 44.890625 
Q 49.859375 40.875 45.40625 35.40625 
Q 44.1875 33.984375 37.640625 27.21875 
Q 31.109375 20.453125 19.1875 8.296875 
z
" id="DejaVuSans-32"/>
       <path d="M 31.78125 66.40625 
Q 24.171875 66.40625 20.328125 58.90625 
Q 16.5 51.421875 16.5 36.375 
Q 16.5 21.390625 20.328125 13.890625 
Q 24.171875 6.390625 31.78125 6.390625 
Q 39.453125 6.390625 43.28125 13.890625 
Q 47.125 21.390625 47.125 36.375 
Q 47.125 51.421875 43.28125 58.90625 
Q 39.453125 66.40625 31.78125 66.40625 
z
M 31.78125 74.21875 
Q 44.046875 74.21875 50.515625 64.515625 
Q 56.984375 54.828125 56.984375 36.375 
Q 56.984375 17.96875 50.515625 8.265625 
Q 44.046875 -1.421875 31.78125 -1.421875 
Q 19.53125 -1.421875 13.0625 8.265625 
Q 6.59375 17.96875 6.59375 36.375 
Q 6.59375 54.828125 13.0625 64.515625 
Q 19.53125 74.21875 31.78125 74.21875 
z
" id="DejaVuSans-30"/>
       <path d="M 10.984375 1.515625 
L 10.984375 10.5 
Q 14.703125 8.734375 18.5 7.8125 
Q 22.3125 6.890625 25.984375 6.890625 
Q 35.75 6.890625 40.890625 13.453125 
Q 46.046875 20.015625 46.78125 33.40625 
Q 43.953125 29.203125 39.59375 26.953125 
Q 35.25 24.703125 29.984375 24.703125 
Q 19.046875 24.703125 12.671875 31.3125 
Q 6.296875 37.9375 6.296875 49.421875 
Q 6.296875 60.640625 12.9375 67.421875 
Q 19.578125 74.21875 30.609375 74.21875 
Q 43.265625 74.21875 49.921875 64.515625 
Q 56.59375 54.828125 56.59375 36.375 
Q 56.59375 19.140625 48.40625 8.859375 
Q 40.234375 -1.421875 26.421875 -1.421875 
Q 22.703125 -1.421875 18.890625 -0.6875 
Q 15.09375 0.046875 10.984375 1.515625 
z
M 30.609375 32.421875 
Q 37.25 32.421875 41.125 36.953125 
Q 45.015625 41.5 45.015625 49.421875 
Q 45.015625 57.28125 41.125 61.84375 
Q 37.25 66.40625 30.609375 66.40625 
Q 23.96875 66.40625 20.09375 61.84375 
Q 16.21875 57.28125 16.21875 49.421875 
Q 16.21875 41.5 20.09375 36.953125 
Q 23.96875 32.421875 30.609375 32.421875 
z
" id="DejaVuSans-39"/>
      </defs>
      <g transform="translate(198.186156 399.078438)scale(0.1 -0.1)">
       <use xlink:href="#DejaVuSans-32"/>
       <use x="63.623047" xlink:href="#DejaVuSans-30"/>
       <use x="127.246094" xlink:href="#DejaVuSans-39"/>
      </g>
     </g>
    </g>
    <g id="xtick_2">
     <g id="line2d_2">
      <g>
       <use style="stroke:#000000;stroke-width:0.8;" x="246.480003" xlink:href="#m89fe0bf38f" y="384.48"/>
      </g>
     </g>
     <g id="text_2">
      <!-- 210 -->
      <defs>
       <path d="M 12.40625 8.296875 
L 28.515625 8.296875 
L 28.515625 63.921875 
L 10.984375 60.40625 
L 10.984375 69.390625 
L 28.421875 72.90625 
L 38.28125 72.90625 
L 38.28125 8.296875 
L 54.390625 8.296875 
L 54.390625 0 
L 12.40625 0 
z
" id="DejaVuSans-31"/>
      </defs>
      <g transform="translate(236.936253 399.078438)scale(0.1 -0.1)">
       <use xlink:href="#DejaVuSans-32"/>
       <use x="63.623047" xlink:href="#DejaVuSans-31"/>
       <use x="127.246094" xlink:href="#DejaVuSans-30"/>
      </g>
     </g>
    </g>
    <g id="xtick_3">
     <g id="line2d_3">
      <g>
       <use style="stroke:#000000;stroke-width:0.8;" x="279.268546" xlink:href="#m89fe0bf38f" y="384.48"/>
      </g>
     </g>
     <g id="text_3">
      <!-- 211 -->
      <g transform="translate(269.724796 399.078438)scale(0.1 -0.1)">
       <use xlink:href="#DejaVuSans-32"/>
       <use x="63.623047" xlink:href="#DejaVuSans-31"/>
       <use x="127.246094" xlink:href="#DejaVuSans-31"/>
      </g>
     </g>
    </g>
    <g id="xtick_4">
     <g id="line2d_4">
      <g>
       <use style="stroke:#000000;stroke-width:0.8;" x="320.999419" xlink:href="#m89fe0bf38f" y="384.48"/>
      </g>
     </g>
     <g id="text_4">
      <!-- 212 -->
      <g transform="translate(311.455669 399.078438)scale(0.1 -0.1)">
       <use xlink:href="#DejaVuSans-32"/>
       <use x="63.623047" xlink:href="#DejaVuSans-31"/>
       <use x="127.246094" xlink:href="#DejaVuSans-32"/>
      </g>
     </g>
    </g>
    <g id="xtick_5">
     <g id="line2d_5">
      <g>
       <use style="stroke:#000000;stroke-width:0.8;" x="356.76874" xlink:href="#m89fe0bf38f" y="384.48"/>
      </g>
     </g>
     <g id="text_5">
      <!-- 213 -->
      <defs>
       <path d="M 40.578125 39.3125 
Q 47.65625 37.796875 51.625 33 
Q 55.609375 28.21875 55.609375 21.1875 
Q 55.609375 10.40625 48.1875 4.484375 
Q 40.765625 -1.421875 27.09375 -1.421875 
Q 22.515625 -1.421875 17.65625 -0.515625 
Q 12.796875 0.390625 7.625 2.203125 
L 7.625 11.71875 
Q 11.71875 9.328125 16.59375 8.109375 
Q 21.484375 6.890625 26.8125 6.890625 
Q 36.078125 6.890625 40.9375 10.546875 
Q 45.796875 14.203125 45.796875 21.1875 
Q 45.796875 27.640625 41.28125 31.265625 
Q 36.765625 34.90625 28.71875 34.90625 
L 20.21875 34.90625 
L 20.21875 43.015625 
L 29.109375 43.015625 
Q 36.375 43.015625 40.234375 45.921875 
Q 44.09375 48.828125 44.09375 54.296875 
Q 44.09375 59.90625 40.109375 62.90625 
Q 36.140625 65.921875 28.71875 65.921875 
Q 24.65625 65.921875 20.015625 65.03125 
Q 15.375 64.15625 9.8125 62.3125 
L 9.8125 71.09375 
Q 15.4375 72.65625 20.34375 73.4375 
Q 25.25 74.21875 29.59375 74.21875 
Q 40.828125 74.21875 47.359375 69.109375 
Q 53.90625 64.015625 53.90625 55.328125 
Q 53.90625 49.265625 50.4375 45.09375 
Q 46.96875 40.921875 40.578125 39.3125 
z
" id="DejaVuSans-33"/>
      </defs>
      <g transform="translate(347.22499 399.078438)scale(0.1 -0.1)">
       <use xlink:href="#DejaVuSans-32"/>
       <use x="63.623047" xlink:href="#DejaVuSans-31"/>
       <use x="127.246094" xlink:href="#DejaVuSans-33"/>
      </g>
     </g>
    </g>
    <g id="xtick_6">
     <g id="line2d_6">
      <g>
       <use style="stroke:#000000;stroke-width:0.8;" x="389.557283" xlink:href="#m89fe0bf38f" y="384.48"/>
      </g>
     </g>
     <g id="text_6">
      <!-- 214 -->
      <defs>
       <path d="M 37.796875 64.3125 
L 12.890625 25.390625 
L 37.796875 25.390625 
z
M 35.203125 72.90625 
L 47.609375 72.90625 
L 47.609375 25.390625 
L 58.015625 25.390625 
L 58.015625 17.1875 
L 47.609375 17.1875 
L 47.609375 0 
L 37.796875 0 
L 37.796875 17.1875 
L 4.890625 17.1875 
L 4.890625 26.703125 
z
" id="DejaVuSans-34"/>
      </defs>
      <g transform="translate(380.013533 399.078438)scale(0.1 -0.1)">
       <use xlink:href="#DejaVuSans-32"/>
       <use x="63.623047" xlink:href="#DejaVuSans-31"/>
       <use x="127.246094" xlink:href="#DejaVuSans-34"/>
      </g>
     </g>
    </g>
    <g id="xtick_7">
     <g id="line2d_7">
      <g>
       <use style="stroke:#000000;stroke-width:0.8;" x="428.30738" xlink:href="#m89fe0bf38f" y="384.48"/>
      </g>
     </g>
     <g id="text_7">
      <!-- 215 -->
      <defs>
       <path d="M 10.796875 72.90625 
L 49.515625 72.90625 
L 49.515625 64.59375 
L 19.828125 64.59375 
L 19.828125 46.734375 
Q 21.96875 47.46875 24.109375 47.828125 
Q 26.265625 48.1875 28.421875 48.1875 
Q 40.625 48.1875 47.75 41.5 
Q 54.890625 34.8125 54.890625 23.390625 
Q 54.890625 11.625 47.5625 5.09375 
Q 40.234375 -1.421875 26.90625 -1.421875 
Q 22.3125 -1.421875 17.546875 -0.640625 
Q 12.796875 0.140625 7.71875 1.703125 
L 7.71875 11.625 
Q 12.109375 9.234375 16.796875 8.0625 
Q 21.484375 6.890625 26.703125 6.890625 
Q 35.15625 6.890625 40.078125 11.328125 
Q 45.015625 15.765625 45.015625 23.390625 
Q 45.015625 31 40.078125 35.4375 
Q 35.15625 39.890625 26.703125 39.890625 
Q 22.75 39.890625 18.8125 39.015625 
Q 14.890625 38.140625 10.796875 36.28125 
z
" id="DejaVuSans-35"/>
      </defs>
      <g transform="translate(418.76363 399.078438)scale(0.1 -0.1)">
       <use xlink:href="#DejaVuSans-32"/>
       <use x="63.623047" xlink:href="#DejaVuSans-31"/>
       <use x="127.246094" xlink:href="#DejaVuSans-35"/>
      </g>
     </g>
    </g>
    <g id="xtick_8">
     <g id="line2d_8">
      <g>
       <use style="stroke:#000000;stroke-width:0.8;" x="467.057476" xlink:href="#m89fe0bf38f" y="384.48"/>
      </g>
     </g>
     <g id="text_8">
      <!-- 216 -->
      <defs>
       <path d="M 33.015625 40.375 
Q 26.375 40.375 22.484375 35.828125 
Q 18.609375 31.296875 18.609375 23.390625 
Q 18.609375 15.53125 22.484375 10.953125 
Q 26.375 6.390625 33.015625 6.390625 
Q 39.65625 6.390625 43.53125 10.953125 
Q 47.40625 15.53125 47.40625 23.390625 
Q 47.40625 31.296875 43.53125 35.828125 
Q 39.65625 40.375 33.015625 40.375 
z
M 52.59375 71.296875 
L 52.59375 62.3125 
Q 48.875 64.0625 45.09375 64.984375 
Q 41.3125 65.921875 37.59375 65.921875 
Q 27.828125 65.921875 22.671875 59.328125 
Q 17.53125 52.734375 16.796875 39.40625 
Q 19.671875 43.65625 24.015625 45.921875 
Q 28.375 48.1875 33.59375 48.1875 
Q 44.578125 48.1875 50.953125 41.515625 
Q 57.328125 34.859375 57.328125 23.390625 
Q 57.328125 12.15625 50.6875 5.359375 
Q 44.046875 -1.421875 33.015625 -1.421875 
Q 20.359375 -1.421875 13.671875 8.265625 
Q 6.984375 17.96875 6.984375 36.375 
Q 6.984375 53.65625 15.1875 63.9375 
Q 23.390625 74.21875 37.203125 74.21875 
Q 40.921875 74.21875 44.703125 73.484375 
Q 48.484375 72.75 52.59375 71.296875 
z
" id="DejaVuSans-36"/>
      </defs>
      <g transform="translate(457.513726 399.078438)scale(0.1 -0.1)">
       <use xlink:href="#DejaVuSans-32"/>
       <use x="63.623047" xlink:href="#DejaVuSans-31"/>
       <use x="127.246094" xlink:href="#DejaVuSans-36"/>
      </g>
     </g>
    </g>
    <g id="xtick_9">
     <g id="line2d_9">
      <g>
       <use style="stroke:#000000;stroke-width:0.8;" x="502.826797" xlink:href="#m89fe0bf38f" y="384.48"/>
      </g>
     </g>
     <g id="text_9">
      <!-- 217 -->
      <defs>
       <path d="M 8.203125 72.90625 
L 55.078125 72.90625 
L 55.078125 68.703125 
L 28.609375 0 
L 18.3125 0 
L 43.21875 64.59375 
L 8.203125 64.59375 
z
" id="DejaVuSans-37"/>
      </defs>
      <g transform="translate(493.283047 399.078438)scale(0.1 -0.1)">
       <use xlink:href="#DejaVuSans-32"/>
       <use x="63.623047" xlink:href="#DejaVuSans-31"/>
       <use x="127.246094" xlink:href="#DejaVuSans-37"/>
      </g>
     </g>
    </g>
    <g id="xtick_10">
     <g id="line2d_10">
      <g>
       <use style="stroke:#000000;stroke-width:0.8;" x="538.596117" xlink:href="#m89fe0bf38f" y="384.48"/>
      </g>
     </g>
     <g id="text_10">
      <!-- 218 -->
      <defs>
       <path d="M 31.78125 34.625 
Q 24.75 34.625 20.71875 30.859375 
Q 16.703125 27.09375 16.703125 20.515625 
Q 16.703125 13.921875 20.71875 10.15625 
Q 24.75 6.390625 31.78125 6.390625 
Q 38.8125 6.390625 42.859375 10.171875 
Q 46.921875 13.96875 46.921875 20.515625 
Q 46.921875 27.09375 42.890625 30.859375 
Q 38.875 34.625 31.78125 34.625 
z
M 21.921875 38.8125 
Q 15.578125 40.375 12.03125 44.71875 
Q 8.5 49.078125 8.5 55.328125 
Q 8.5 64.0625 14.71875 69.140625 
Q 20.953125 74.21875 31.78125 74.21875 
Q 42.671875 74.21875 48.875 69.140625 
Q 55.078125 64.0625 55.078125 55.328125 
Q 55.078125 49.078125 51.53125 44.71875 
Q 48 40.375 41.703125 38.8125 
Q 48.828125 37.15625 52.796875 32.3125 
Q 56.78125 27.484375 56.78125 20.515625 
Q 56.78125 9.90625 50.3125 4.234375 
Q 43.84375 -1.421875 31.78125 -1.421875 
Q 19.734375 -1.421875 13.25 4.234375 
Q 6.78125 9.90625 6.78125 20.515625 
Q 6.78125 27.484375 10.78125 32.3125 
Q 14.796875 37.15625 21.921875 38.8125 
z
M 18.3125 54.390625 
Q 18.3125 48.734375 21.84375 45.5625 
Q 25.390625 42.390625 31.78125 42.390625 
Q 38.140625 42.390625 41.71875 45.5625 
Q 45.3125 48.734375 45.3125 54.390625 
Q 45.3125 60.0625 41.71875 63.234375 
Q 38.140625 66.40625 31.78125 66.40625 
Q 25.390625 66.40625 21.84375 63.234375 
Q 18.3125 60.0625 18.3125 54.390625 
z
" id="DejaVuSans-38"/>
      </defs>
      <g transform="translate(529.052367 399.078438)scale(0.1 -0.1)">
       <use xlink:href="#DejaVuSans-32"/>
       <use x="63.623047" xlink:href="#DejaVuSans-31"/>
       <use x="127.246094" xlink:href="#DejaVuSans-38"/>
      </g>
     </g>
    </g>
    <g id="xtick_11">
     <g id="line2d_11">
      <g>
       <use style="stroke:#000000;stroke-width:0.8;" x="574.365437" xlink:href="#m89fe0bf38f" y="384.48"/>
      </g>
     </g>
     <g id="text_11">
      <!-- 219 -->
      <g transform="translate(564.821687 399.078438)scale(0.1 -0.1)">
       <use xlink:href="#DejaVuSans-32"/>
       <use x="63.623047" xlink:href="#DejaVuSans-31"/>
       <use x="127.246094" xlink:href="#DejaVuSans-39"/>
      </g>
     </g>
    </g>
    <g id="xtick_12">
     <g id="line2d_12">
      <g>
       <use style="stroke:#000000;stroke-width:0.8;" x="607.15398" xlink:href="#m89fe0bf38f" y="384.48"/>
      </g>
     </g>
     <g id="text_12">
      <!-- 220 -->
      <g transform="translate(597.61023 399.078438)scale(0.1 -0.1)">
       <use xlink:href="#DejaVuSans-32"/>
       <use x="63.623047" xlink:href="#DejaVuSans-32"/>
       <use x="127.246094" xlink:href="#DejaVuSans-30"/>
      </g>
     </g>
    </g>
    <g id="xtick_13">
     <g id="line2d_13">
      <g>
       <use style="stroke:#000000;stroke-width:0.8;" x="642.9233" xlink:href="#m89fe0bf38f" y="384.48"/>
      </g>
     </g>
     <g id="text_13">
      <!-- 221 -->
      <g transform="translate(633.37955 399.078438)scale(0.1 -0.1)">
       <use xlink:href="#DejaVuSans-32"/>
       <use x="63.623047" xlink:href="#DejaVuSans-32"/>
       <use x="127.246094" xlink:href="#DejaVuSans-31"/>
      </g>
     </g>
    </g>
    <g id="xtick_14">
     <g id="line2d_14">
      <g>
       <use style="stroke:#000000;stroke-width:0.8;" x="678.69262" xlink:href="#m89fe0bf38f" y="384.48"/>
      </g>
     </g>
     <g id="text_14">
      <!-- 222 -->
      <g transform="translate(669.14887 399.078438)scale(0.1 -0.1)">
       <use xlink:href="#DejaVuSans-32"/>
       <use x="63.623047" xlink:href="#DejaVuSans-32"/>
       <use x="127.246094" xlink:href="#DejaVuSans-32"/>
      </g>
     </g>
    </g>
    <g id="xtick_15">
     <g id="line2d_15">
      <g>
       <use style="stroke:#000000;stroke-width:0.8;" x="714.46194" xlink:href="#m89fe0bf38f" y="384.48"/>
      </g>
     </g>
     <g id="text_15">
      <!-- 223 -->
      <g transform="translate(704.91819 399.078438)scale(0.1 -0.1)">
       <use xlink:href="#DejaVuSans-32"/>
       <use x="63.623047" xlink:href="#DejaVuSans-32"/>
       <use x="127.246094" xlink:href="#DejaVuSans-33"/>
      </g>
     </g>
    </g>
    <g id="xtick_16">
     <g id="line2d_16">
      <g>
       <use style="stroke:#000000;stroke-width:0.8;" x="750.23126" xlink:href="#m89fe0bf38f" y="384.48"/>
      </g>
     </g>
     <g id="text_16">
      <!-- 224 -->
      <g transform="translate(740.68751 399.078438)scale(0.1 -0.1)">
       <use xlink:href="#DejaVuSans-32"/>
       <use x="63.623047" xlink:href="#DejaVuSans-32"/>
       <use x="127.246094" xlink:href="#DejaVuSans-34"/>
      </g>
     </g>
    </g>
    <g id="xtick_17">
     <g id="line2d_17">
      <g>
       <use style="stroke:#000000;stroke-width:0.8;" x="788.981357" xlink:href="#m89fe0bf38f" y="384.48"/>
      </g>
     </g>
     <g id="text_17">
      <!-- 225 -->
      <g transform="translate(779.437607 399.078438)scale(0.1 -0.1)">
       <use xlink:href="#DejaVuSans-32"/>
       <use x="63.623047" xlink:href="#DejaVuSans-32"/>
       <use x="127.246094" xlink:href="#DejaVuSans-35"/>
      </g>
     </g>
    </g>
    <g id="xtick_18">
     <g id="line2d_18">
      <g>
       <use style="stroke:#000000;stroke-width:0.8;" x="824.750677" xlink:href="#m89fe0bf38f" y="384.48"/>
      </g>
     </g>
     <g id="text_18">
      <!-- 226 -->
      <g transform="translate(815.206927 399.078438)scale(0.1 -0.1)">
       <use xlink:href="#DejaVuSans-32"/>
       <use x="63.623047" xlink:href="#DejaVuSans-32"/>
       <use x="127.246094" xlink:href="#DejaVuSans-36"/>
      </g>
     </g>
    </g>
    <g id="xtick_19">
     <g id="line2d_19">
      <g>
       <use style="stroke:#000000;stroke-width:0.8;" x="863.500774" xlink:href="#m89fe0bf38f" y="384.48"/>
      </g>
     </g>
     <g id="text_19">
      <!-- 227 -->
      <g transform="translate(853.957024 399.078438)scale(0.1 -0.1)">
       <use xlink:href="#DejaVuSans-32"/>
       <use x="63.623047" xlink:href="#DejaVuSans-32"/>
       <use x="127.246094" xlink:href="#DejaVuSans-37"/>
      </g>
     </g>
    </g>
    <g id="xtick_20">
     <g id="line2d_20">
      <g>
       <use style="stroke:#000000;stroke-width:0.8;" x="899.270094" xlink:href="#m89fe0bf38f" y="384.48"/>
      </g>
     </g>
     <g id="text_20">
      <!-- 228 -->
      <g transform="translate(889.726344 399.078438)scale(0.1 -0.1)">
       <use xlink:href="#DejaVuSans-32"/>
       <use x="63.623047" xlink:href="#DejaVuSans-32"/>
       <use x="127.246094" xlink:href="#DejaVuSans-38"/>
      </g>
     </g>
    </g>
   </g>
   <g id="matplotlib.axis_2">
    <g id="ytick_1">
     <g id="line2d_21">
      <defs>
       <path d="M 0 0 
L -3.5 0 
" id="m09efacc395" style="stroke:#000000;stroke-width:0.8;"/>
      </defs>
      <g>
       <use style="stroke:#000000;stroke-width:0.8;" x="135" xlink:href="#m09efacc395" y="342.9"/>
      </g>
     </g>
    </g>
    <g id="ytick_2">
     <g id="line2d_22">
      <g>
       <use style="stroke:#000000;stroke-width:0.8;" x="135" xlink:href="#m09efacc395" y="287.46"/>
      </g>
     </g>
    </g>
    <g id="ytick_3">
     <g id="line2d_23">
      <g>
       <use style="stroke:#000000;stroke-width:0.8;" x="135" xlink:href="#m09efacc395" y="232.02"/>
      </g>
     </g>
    </g>
    <g id="ytick_4">
     <g id="line2d_24">
      <g>
       <use style="stroke:#000000;stroke-width:0.8;" x="135" xlink:href="#m09efacc395" y="176.58"/>
      </g>
     </g>
    </g>
    <g id="ytick_5">
     <g id="line2d_25">
      <g>
       <use style="stroke:#000000;stroke-width:0.8;" x="135" xlink:href="#m09efacc395" y="121.14"/>
      </g>
     </g>
    </g>
    <g id="ytick_6">
     <g id="line2d_26">
      <g>
       <use style="stroke:#000000;stroke-width:0.8;" x="135" xlink:href="#m09efacc395" y="65.7"/>
      </g>
     </g>
    </g>
   </g>
   <g id="line2d_27">
    <path clip-path="url(#p96ad4022f9)" d="M 192.826022 285.15 
L 195.806799 242.97907 
L 201.768353 135.805814 
L 204.749129 95.246512 
L 207.729906 79.398837 
L 210.710683 93.097674 
L 213.691459 132.313953 
L 219.653013 240.830233 
L 222.633789 285.687209 
L 225.614566 315.77093 
L 228.595343 331.887209 
L 231.576119 338.87093 
L 234.556896 341.288372 
L 237.537673 341.825581 
L 240.518449 342.094186 
L 246.480003 342.094186 
L 252.441556 341.556977 
L 255.422333 340.751163 
L 258.403109 338.065116 
L 261.383886 330.275581 
L 264.364663 312.27907 
L 267.345439 279.509302 
L 270.326216 231.160465 
L 276.287769 116.734884 
L 279.268546 77.25 
L 282.249323 65.7 
L 285.230099 85.30814 
L 288.210876 130.433721 
L 294.172429 244.590698 
L 297.153206 288.910465 
L 300.133983 317.651163 
L 303.114759 332.693023 
L 306.095536 338.87093 
L 309.076313 340.751163 
L 318.018643 342.362791 
L 323.980196 342.9 
L 353.787963 342.9 
L 365.71107 341.825581 
L 368.691846 341.288372 
L 371.672623 338.87093 
L 374.6534 333.230233 
L 377.634176 322.486047 
L 380.614953 306.638372 
L 386.576506 267.422093 
L 389.557283 252.917442 
L 392.53806 247.276744 
L 395.518836 252.111628 
L 398.499613 266.347674 
L 404.461166 304.489535 
L 407.441943 318.188372 
L 410.42272 321.680233 
L 413.403496 310.398837 
L 416.384273 281.65814 
L 419.36505 236.532558 
L 425.326603 126.404651 
L 428.30738 86.919767 
L 431.288156 73.489535 
L 434.268933 89.874419 
L 437.24971 131.50814 
L 443.211263 241.904651 
L 446.19204 286.493023 
L 449.172816 316.039535 
L 452.153593 331.887209 
L 455.13437 338.87093 
L 458.115146 341.019767 
L 464.0767 342.094186 
L 473.01903 342.9 
L 750.23126 342.9 
L 762.154367 341.825581 
L 765.135144 341.019767 
L 768.11592 338.065116 
L 771.096697 330.812791 
L 774.077474 316.039535 
L 777.058251 292.133721 
L 780.039027 260.706977 
L 783.019804 226.862791 
L 786.000581 198.659302 
L 788.981357 183.617442 
L 791.962134 186.303488 
L 794.942911 206.180233 
L 797.923687 237.069767 
L 800.904464 271.182558 
L 803.885241 300.72907 
L 806.866017 321.948837 
L 809.846794 334.036047 
L 812.827571 339.676744 
L 815.808347 341.556977 
L 818.789124 342.094186 
L 824.750677 342.631395 
L 827.731454 342.631395 
L 830.712231 342.9 
L 896.289317 342.9 
L 899.270094 342.631395 
L 902.250871 342.631395 
L 908.212424 342.094186 
L 911.193201 341.288372 
L 914.173978 339.139535 
L 917.154754 332.961628 
L 917.154754 332.961628 
" style="fill:none;stroke:#000000;stroke-linecap:square;stroke-width:2;"/>
   </g>
   <g id="line2d_28">
    <path clip-path="url(#p96ad4022f9)" d="M 192.826022 342.9 
L 318.018643 342.9 
L 323.980196 342.362791 
L 329.941749 341.288372 
L 332.922526 339.676744 
L 335.903303 334.84186 
L 338.88408 322.486047 
L 341.864856 298.580233 
L 344.845633 261.244186 
L 350.807186 165.62093 
L 353.787963 129.090698 
L 356.76874 115.123256 
L 359.749516 127.747674 
L 362.730293 162.934884 
L 368.691846 257.752326 
L 371.672623 295.894186 
L 374.6534 320.874419 
L 377.634176 334.036047 
L 380.614953 339.40814 
L 383.59573 341.288372 
L 386.576506 341.825581 
L 389.557283 342.094186 
L 392.53806 342.631395 
L 395.518836 342.9 
L 499.84602 342.9 
L 508.78835 342.094186 
L 514.749903 341.019767 
L 517.73068 338.602326 
L 520.711457 331.618605 
L 523.692233 316.30814 
L 526.67301 289.716279 
L 529.653787 252.917442 
L 532.634563 211.552326 
L 535.61534 175.290698 
L 538.596117 154.60814 
L 541.576893 155.682558 
L 544.55767 178.245349 
L 547.538447 215.044186 
L 550.519223 255.066279 
L 553.5 287.567442 
L 556.480777 304.75814 
L 559.461553 303.146512 
L 562.44233 283.806977 
L 565.423107 251.843023 
L 568.403883 215.581395 
L 571.38466 185.497674 
L 574.365437 171.261628 
L 577.346213 177.17093 
L 580.32699 201.345349 
L 586.288543 270.913953 
L 589.26932 296.7 
L 592.250097 306.638372 
L 595.230873 298.311628 
L 598.21165 274.137209 
L 604.173203 205.374419 
L 607.15398 179.856977 
L 610.134757 171.798837 
L 613.115533 183.617442 
L 616.09631 211.552326 
L 619.077087 247.00814 
L 622.057863 280.315116 
L 625.03864 302.609302 
L 628.019417 308.25 
L 631.000194 295.625581 
L 633.98097 266.347674 
L 639.942524 186.840698 
L 642.9233 157.562791 
L 645.904077 148.161628 
L 648.884854 161.860465 
L 651.86563 194.093023 
L 654.846407 235.726744 
L 657.827184 275.748837 
L 660.80796 306.638372 
L 663.788737 326.246512 
L 666.769514 336.184884 
L 669.75029 340.213953 
L 672.731067 341.288372 
L 675.711844 341.825581 
L 678.69262 342.094186 
L 681.673397 342.631395 
L 684.654174 342.9 
L 711.481164 342.9 
L 723.40427 341.825581 
L 726.385047 341.019767 
L 729.365824 338.602326 
L 732.3466 331.35 
L 735.327377 315.502326 
L 738.308154 288.64186 
L 741.28893 251.305814 
L 744.269707 209.403488 
L 747.250484 172.067442 
L 750.23126 150.04186 
L 753.212037 149.504651 
L 756.192814 170.993023 
L 759.17359 208.060465 
L 762.154367 249.962791 
L 765.135144 287.567442 
L 768.11592 314.965116 
L 771.096697 330.812791 
L 774.077474 338.065116 
L 777.058251 340.751163 
L 780.039027 341.556977 
L 786.000581 342.094186 
L 788.981357 342.631395 
L 791.962134 342.9 
L 860.519997 342.9 
L 866.481551 342.362791 
L 869.462327 341.825581 
L 872.443104 341.556977 
L 875.423881 340.213953 
L 878.404657 335.916279 
L 881.385434 325.709302 
L 884.366211 306.638372 
L 887.346987 277.360465 
L 893.308541 204.3 
L 896.289317 176.902326 
L 899.270094 166.963953 
L 902.250871 177.439535 
L 905.231647 205.105814 
L 911.193201 278.166279 
L 914.173978 307.175581 
L 917.154754 325.977907 
L 917.154754 325.977907 
" style="fill:none;stroke:#008000;stroke-linecap:square;stroke-width:2;"/>
   </g>
   <g id="line2d_29">
    <path clip-path="url(#p96ad4022f9)" d="M 192.826022 342.9 
L 207.729906 342.9 
L 216.672236 342.094186 
L 219.653013 342.094186 
L 222.633789 341.556977 
L 225.614566 339.676744 
L 228.595343 335.110465 
L 231.576119 325.172093 
L 234.556896 309.055814 
L 237.537673 287.030233 
L 240.518449 263.124419 
L 243.499226 242.710465 
L 246.480003 231.42907 
L 249.460779 232.503488 
L 252.441556 245.665116 
L 255.422333 266.884884 
L 258.403109 290.790698 
L 261.383886 312.010465 
L 264.364663 327.32093 
L 267.345439 336.184884 
L 270.326216 340.213953 
L 273.306993 341.825581 
L 279.268546 342.362791 
L 288.210876 342.362791 
L 291.191653 342.094186 
L 294.172429 342.094186 
L 297.153206 341.288372 
L 300.133983 339.139535 
L 303.114759 333.498837 
L 306.095536 321.948837 
L 309.076313 303.146512 
L 312.057089 278.703488 
L 315.037866 252.111628 
L 318.018643 229.817442 
L 320.999419 217.730233 
L 323.980196 219.610465 
L 326.960973 234.652326 
L 329.941749 258.826744 
L 332.922526 285.15 
L 335.903303 308.787209 
L 338.88408 325.440698 
L 341.864856 335.37907 
L 344.845633 339.945349 
L 347.82641 341.556977 
L 362.730293 342.9 
L 428.30738 342.9 
L 440.230486 341.825581 
L 443.211263 341.288372 
L 446.19204 339.40814 
L 449.172816 334.304651 
L 452.153593 322.754651 
L 455.13437 302.877907 
L 458.115146 274.405814 
L 461.095923 241.904651 
L 464.0767 212.089535 
L 467.057476 193.018605 
L 470.038253 190.063953 
L 473.01903 204.031395 
L 475.999806 230.89186 
L 478.980583 262.855814 
L 481.96136 291.596512 
L 484.942137 310.667442 
L 487.922913 315.233721 
L 490.90369 304.22093 
L 493.884467 278.703488 
L 499.84602 209.672093 
L 502.826797 183.886047 
L 505.807573 175.022093 
L 508.78835 185.497674 
L 511.769127 212.35814 
L 517.73068 281.389535 
L 520.711457 308.787209 
L 523.692233 326.783721 
L 526.67301 336.184884 
L 529.653787 340.213953 
L 532.634563 341.556977 
L 535.61534 342.094186 
L 544.55767 342.9 
L 639.942524 342.9 
L 651.86563 341.825581 
L 654.846407 341.288372 
L 657.827184 339.676744 
L 660.80796 334.304651 
L 663.788737 322.486047 
L 666.769514 301.803488 
L 669.75029 271.988372 
L 672.731067 237.069767 
L 675.711844 204.3 
L 678.69262 182.543023 
L 681.673397 178.513953 
L 684.654174 193.287209 
L 687.63495 222.296512 
L 690.615727 257.215116 
L 693.596504 288.373256 
L 696.57728 308.25 
L 699.558057 312.010465 
L 702.538834 298.311628 
L 705.51961 268.765116 
L 711.481164 188.989535 
L 714.46194 158.905814 
L 717.442717 147.624419 
L 720.423494 158.905814 
L 723.40427 189.25814 
L 729.365824 270.376744 
L 732.3466 302.609302 
L 735.327377 323.82907 
L 738.308154 335.110465 
L 741.28893 339.676744 
L 744.269707 341.288372 
L 747.250484 341.825581 
L 753.212037 342.362791 
L 756.192814 342.9 
L 788.981357 342.9 
L 794.942911 342.362791 
L 800.904464 341.288372 
L 803.885241 340.213953 
L 806.866017 336.184884 
L 809.846794 326.783721 
L 812.827571 309.055814 
L 815.808347 281.65814 
L 821.769901 211.82093 
L 824.750677 184.960465 
L 827.731454 173.67907 
L 830.712231 181.737209 
L 833.693007 206.717442 
L 839.654561 276.554651 
L 842.635337 305.563953 
L 845.616114 324.903488 
L 848.596891 335.37907 
L 851.577667 339.945349 
L 854.558444 341.556977 
L 857.539221 341.825581 
L 860.519997 342.362791 
L 866.481551 342.9 
L 917.154754 342.9 
L 917.154754 342.9 
" style="fill:none;stroke:#ff0000;stroke-linecap:square;stroke-width:2;"/>
   </g>
   <g id="line2d_30">
    <path clip-path="url(#p96ad4022f9)" d="M 192.826022 342.9 
L 824.750677 342.9 
L 836.673784 341.825581 
L 839.654561 341.019767 
L 842.635337 338.602326 
L 845.616114 331.35 
L 848.596891 315.502326 
L 851.577667 287.836047 
L 854.558444 248.619767 
L 857.539221 203.494186 
L 860.519997 162.397674 
L 863.500774 136.343023 
L 866.481551 132.851163 
L 869.462327 152.996512 
L 872.443104 190.601163 
L 875.423881 235.45814 
L 878.404657 277.09186 
L 881.385434 308.25 
L 884.366211 327.32093 
L 887.346987 336.722093 
L 890.327764 340.482558 
L 893.308541 341.288372 
L 896.289317 341.825581 
L 899.270094 342.094186 
L 902.250871 342.631395 
L 905.231647 342.9 
L 917.154754 342.9 
L 917.154754 342.9 
" style="fill:none;stroke:#0000ff;stroke-linecap:square;stroke-width:2;"/>
   </g>
   <g id="patch_4">
    <path d="M 135 384.48 
L 135 51.84 
" style="fill:none;stroke:#000000;stroke-linecap:square;stroke-linejoin:miter;stroke-width:0.8;"/>
   </g>
   <g id="patch_5">
    <path d="M 972 384.48 
L 972 51.84 
" style="fill:none;stroke:#000000;stroke-linecap:square;stroke-linejoin:miter;stroke-width:0.8;"/>
   </g>
   <g id="patch_6">
    <path d="M 135 384.48 
L 972 384.48 
" style="fill:none;stroke:#000000;stroke-linecap:square;stroke-linejoin:miter;stroke-width:0.8;"/>
   </g>
   <g id="patch_7">
    <path d="M 135 51.84 
L 972 51.84 
" style="fill:none;stroke:#000000;stroke-linecap:square;stroke-linejoin:miter;stroke-width:0.8;"/>
   </g>
   <g id="text_21">
    <!-- G -->
    <defs>
     <path d="M 59.515625 10.40625 
L 59.515625 29.984375 
L 43.40625 29.984375 
L 43.40625 38.09375 
L 69.28125 38.09375 
L 69.28125 6.78125 
Q 63.578125 2.734375 56.6875 0.65625 
Q 49.8125 -1.421875 42 -1.421875 
Q 24.90625 -1.421875 15.25 8.5625 
Q 5.609375 18.5625 5.609375 36.375 
Q 5.609375 54.25 15.25 64.234375 
Q 24.90625 74.21875 42 74.21875 
Q 49.125 74.21875 55.546875 72.453125 
Q 61.96875 70.703125 67.390625 67.28125 
L 67.390625 56.78125 
Q 61.921875 61.421875 55.765625 63.765625 
Q 49.609375 66.109375 42.828125 66.109375 
Q 29.4375 66.109375 22.71875 58.640625 
Q 16.015625 51.171875 16.015625 36.375 
Q 16.015625 21.625 22.71875 14.15625 
Q 29.4375 6.6875 42.828125 6.6875 
Q 48.046875 6.6875 52.140625 7.59375 
Q 56.25 8.5 59.515625 10.40625 
z
" id="DejaVuSans-47"/>
    </defs>
    <g transform="translate(203.855687 373.392)scale(0.1 -0.1)">
     <use xlink:href="#DejaVuSans-47"/>
    </g>
   </g>
   <g id="text_22">
    <!-- T -->
    <defs>
     <path d="M -0.296875 72.90625 
L 61.375 72.90625 
L 61.375 64.59375 
L 35.5 64.59375 
L 35.5 0 
L 25.59375 0 
L 25.59375 64.59375 
L -0.296875 64.59375 
z
" id="DejaVuSans-54"/>
    </defs>
    <g style="fill:#ff0000;" transform="translate(243.426096 373.392)scale(0.1 -0.1)">
     <use xlink:href="#DejaVuSans-54"/>
    </g>
   </g>
   <g id="text_23">
    <!-- G -->
    <g transform="translate(275.394327 373.392)scale(0.1 -0.1)">
     <use xlink:href="#DejaVuSans-47"/>
    </g>
   </g>
   <g id="text_24">
    <!-- T -->
    <g style="fill:#ff0000;" transform="translate(317.945513 373.392)scale(0.1 -0.1)">
     <use xlink:href="#DejaVuSans-54"/>
    </g>
   </g>
   <g id="text_25">
    <!-- A -->
    <defs>
     <path d="M 34.1875 63.1875 
L 20.796875 26.90625 
L 47.609375 26.90625 
z
M 28.609375 72.90625 
L 39.796875 72.90625 
L 67.578125 0 
L 57.328125 0 
L 50.6875 18.703125 
L 17.828125 18.703125 
L 11.1875 0 
L 0.78125 0 
z
" id="DejaVuSans-41"/>
    </defs>
    <g style="fill:#008000;" transform="translate(353.348427 373.392)scale(0.1 -0.1)">
     <use xlink:href="#DejaVuSans-41"/>
    </g>
   </g>
   <g id="text_26">
    <!-- G -->
    <g transform="translate(385.683064 373.392)scale(0.1 -0.1)">
     <use xlink:href="#DejaVuSans-47"/>
    </g>
   </g>
   <g id="text_27">
    <!-- G -->
    <g transform="translate(424.433161 373.392)scale(0.1 -0.1)">
     <use xlink:href="#DejaVuSans-47"/>
    </g>
   </g>
   <g id="text_28">
    <!-- T -->
    <g style="fill:#ff0000;" transform="translate(464.00357 373.392)scale(0.1 -0.1)">
     <use xlink:href="#DejaVuSans-54"/>
    </g>
   </g>
   <g id="text_29">
    <!-- T -->
    <g style="fill:#ff0000;" transform="translate(499.77289 373.392)scale(0.1 -0.1)">
     <use xlink:href="#DejaVuSans-54"/>
    </g>
   </g>
   <g id="text_30">
    <!-- A -->
    <g style="fill:#008000;" transform="translate(535.175804 373.392)scale(0.1 -0.1)">
     <use xlink:href="#DejaVuSans-41"/>
    </g>
   </g>
   <g id="text_31">
    <!-- A -->
    <g style="fill:#008000;" transform="translate(570.945124 373.392)scale(0.1 -0.1)">
     <use xlink:href="#DejaVuSans-41"/>
    </g>
   </g>
   <g id="text_32">
    <!-- A -->
    <g style="fill:#008000;" transform="translate(603.733668 373.392)scale(0.1 -0.1)">
     <use xlink:href="#DejaVuSans-41"/>
    </g>
   </g>
   <g id="text_33">
    <!-- A -->
    <g style="fill:#008000;" transform="translate(639.502988 373.392)scale(0.1 -0.1)">
     <use xlink:href="#DejaVuSans-41"/>
    </g>
   </g>
   <g id="text_34">
    <!-- T -->
    <g style="fill:#ff0000;" transform="translate(675.638714 373.392)scale(0.1 -0.1)">
     <use xlink:href="#DejaVuSans-54"/>
    </g>
   </g>
   <g id="text_35">
    <!-- T -->
    <g style="fill:#ff0000;" transform="translate(711.408034 373.392)scale(0.1 -0.1)">
     <use xlink:href="#DejaVuSans-54"/>
    </g>
   </g>
   <g id="text_36">
    <!-- A -->
    <g style="fill:#008000;" transform="translate(746.810948 373.392)scale(0.1 -0.1)">
     <use xlink:href="#DejaVuSans-41"/>
    </g>
   </g>
   <g id="text_37">
    <!-- G -->
    <g transform="translate(785.107138 373.392)scale(0.1 -0.1)">
     <use xlink:href="#DejaVuSans-47"/>
    </g>
   </g>
   <g id="text_38">
    <!-- T -->
    <g style="fill:#ff0000;" transform="translate(821.696771 373.392)scale(0.1 -0.1)">
     <use xlink:href="#DejaVuSans-54"/>
    </g>
   </g>
   <g id="text_39">
    <!-- C -->
    <defs>
     <path d="M 64.40625 67.28125 
L 64.40625 56.890625 
Q 59.421875 61.53125 53.78125 63.8125 
Q 48.140625 66.109375 41.796875 66.109375 
Q 29.296875 66.109375 22.65625 58.46875 
Q 16.015625 50.828125 16.015625 36.375 
Q 16.015625 21.96875 22.65625 14.328125 
Q 29.296875 6.6875 41.796875 6.6875 
Q 48.140625 6.6875 53.78125 8.984375 
Q 59.421875 11.28125 64.40625 15.921875 
L 64.40625 5.609375 
Q 59.234375 2.09375 53.4375 0.328125 
Q 47.65625 -1.421875 41.21875 -1.421875 
Q 24.65625 -1.421875 15.125 8.703125 
Q 5.609375 18.84375 5.609375 36.375 
Q 5.609375 53.953125 15.125 64.078125 
Q 24.65625 74.21875 41.21875 74.21875 
Q 47.75 74.21875 53.53125 72.484375 
Q 59.328125 70.75 64.40625 67.28125 
z
" id="DejaVuSans-43"/>
    </defs>
    <g style="fill:#0000ff;" transform="translate(860.009368 373.392)scale(0.1 -0.1)">
     <use xlink:href="#DejaVuSans-43"/>
    </g>
   </g>
   <g id="text_40">
    <!-- A -->
    <g style="fill:#008000;" transform="translate(895.849782 373.392)scale(0.1 -0.1)">
     <use xlink:href="#DejaVuSans-41"/>
    </g>
   </g>
   <g id="legend_1">
    <g id="patch_8">
     <path d="M 920.41 121.8789 
L 960.158438 121.8789 
Q 962.158438 121.8789 962.158438 119.8789 
L 962.158438 62.1664 
Q 962.158438 60.1664 960.158438 60.1664 
L 920.41 60.1664 
Q 918.41 60.1664 918.41 62.1664 
L 918.41 119.8789 
Q 918.41 121.8789 920.41 121.8789 
z
" style="fill:#ffffff;opacity:0.8;stroke:#cccccc;stroke-linejoin:miter;"/>
    </g>
    <g id="line2d_31">
     <path d="M 922.41 68.264837 
L 942.41 68.264837 
" style="fill:none;stroke:#000000;stroke-linecap:square;stroke-width:2;"/>
    </g>
    <g id="line2d_32"/>
    <g id="text_41">
     <!-- G -->
     <g transform="translate(950.41 71.764837)scale(0.1 -0.1)">
      <use xlink:href="#DejaVuSans-47"/>
     </g>
    </g>
    <g id="line2d_33">
     <path d="M 922.41 82.942962 
L 942.41 82.942962 
" style="fill:none;stroke:#008000;stroke-linecap:square;stroke-width:2;"/>
    </g>
    <g id="line2d_34"/>
    <g id="text_42">
     <!-- A -->
     <g transform="translate(950.41 86.442962)scale(0.1 -0.1)">
      <use xlink:href="#DejaVuSans-41"/>
     </g>
    </g>
    <g id="line2d_35">
     <path d="M 922.41 97.621087 
L 942.41 97.621087 
" style="fill:none;stroke:#ff0000;stroke-linecap:square;stroke-width:2;"/>
    </g>
    <g id="line2d_36"/>
    <g id="text_43">
     <!-- T -->
     <g transform="translate(950.41 101.121087)scale(0.1 -0.1)">
      <use xlink:href="#DejaVuSans-54"/>
     </g>
    </g>
    <g id="line2d_37">
     <path d="M 922.41 112.299212 
L 942.41 112.299212 
" style="fill:none;stroke:#0000ff;stroke-linecap:square;stroke-width:2;"/>
    </g>
    <g id="line2d_38"/>
    <g id="text_44">
     <!-- C -->
     <g transform="translate(950.41 115.799212)scale(0.1 -0.1)">
      <use xlink:href="#DejaVuSans-43"/>
     </g>
    </g>
   </g>
  </g>
 </g>
 <defs>
  <clipPath id="p96ad4022f9">
   <rect height="332.64" width="837" x="135" y="51.84"/>
  </clipPath>
 </defs>
</svg>
